<?xml version="1.0" encoding="UTF-8" standalone="no"?>
<!DOCTYPE svg PUBLIC "-//W3C//DTD SVG 1.1//EN"
 "http://www.w3.org/Graphics/SVG/1.1/DTD/svg11.dtd">
<!-- Generated by graphviz version 10.0.1 (20240210.2158)
 -->
<!-- Title: network Pages: 1 -->
<svg width="1094pt" height="935pt"
 viewBox="0.00 0.00 1094.13 935.06" xmlns="http://www.w3.org/2000/svg" xmlns:xlink="http://www.w3.org/1999/xlink">
<g id="graph0" class="graph" transform="scale(1 1) rotate(0) translate(4 931.06)">
<title>network</title>
<polygon fill="white" stroke="none" points="-4,4 -4,-931.06 1090.13,-931.06 1090.13,4 -4,4"/>
<g id="clust1" class="cluster">
<title>cluster_kbc</title>
<polygon fill="none" stroke="black" points="246.82,0 246.82,-83 610.47,-83 610.47,0 246.82,0"/>
<text text-anchor="middle" x="428.64" y="-65.7" font-family="Times New Roman,serif" font-size="14.00">kbc</text>
</g>
<g id="clust2" class="cluster">
<title>cluster_osb</title>
<polygon fill="none" stroke="black" points="825.44,-340.43 825.44,-469.99 1019.2,-469.99 1019.2,-340.43 825.44,-340.43"/>
<text text-anchor="middle" x="922.32" y="-452.69" font-family="Times New Roman,serif" font-size="14.00">osb</text>
</g>
<!-- 172.21.100.0/30 -->
<g id="node1" class="node">
<title>172.21.100.0/30</title>
<ellipse fill="none" stroke="black" cx="464.2" cy="-249.39" rx="74.42" ry="27.93"/>
<text text-anchor="middle" x="464.2" y="-251.84" font-family="Times New Roman,serif" font-size="14.00">172.21.100.0/30</text>
<text text-anchor="middle" x="464.2" y="-236.09" font-family="Times New Roman,serif" font-size="14.00">LOCAL</text>
</g>
<!-- 10.0.0.0/24 -->
<g id="node2" class="node">
<title>10.0.0.0/24</title>
<ellipse fill="none" stroke="black" cx="775.45" cy="-587.08" rx="55.33" ry="27.93"/>
<text text-anchor="middle" x="775.45" y="-589.53" font-family="Times New Roman,serif" font-size="14.00">10.0.0.0/24</text>
<text text-anchor="middle" x="775.45" y="-573.78" font-family="Times New Roman,serif" font-size="14.00">DMZ</text>
</g>
<!-- 192.168.0.0/24 -->
<g id="node3" class="node">
<title>192.168.0.0/24</title>
<ellipse fill="none" stroke="black" cx="275.21" cy="-668.87" rx="69.65" ry="27.93"/>
<text text-anchor="middle" x="275.21" y="-671.32" font-family="Times New Roman,serif" font-size="14.00">192.168.0.0/24</text>
<text text-anchor="middle" x="275.21" y="-655.57" font-family="Times New Roman,serif" font-size="14.00">LAN</text>
</g>
<!-- r1 -->
<g id="node4" class="node">
<title>r1</title>
<polygon fill="none" stroke="black" points="546.35,-537.75 468.85,-537.75 468.85,-498.25 546.35,-498.25 546.35,-537.75"/>
<text text-anchor="middle" x="507.6" y="-520.45" font-family="Times New Roman,serif" font-size="14.00">r1</text>
<text text-anchor="middle" x="507.6" y="-504.7" font-family="Times New Roman,serif" font-size="14.00">core router</text>
</g>
<!-- r1&#45;&#45;172.21.100.0/30 -->
<g id="edge3" class="edge">
<title>r1&#45;&#45;172.21.100.0/30</title>
<path fill="none" stroke="black" d="M504.34,-497.81C496.69,-450.47 477.58,-332.22 468.78,-277.72"/>
<text text-anchor="middle" x="491.42" y="-473.36" font-family="Times New Roman,serif" font-size="14.00">.1</text>
</g>
<!-- r1&#45;&#45;10.0.0.0/24 -->
<g id="edge1" class="edge">
<title>r1&#45;&#45;10.0.0.0/24</title>
<path fill="none" stroke="black" d="M546.83,-528.12C594.35,-540.38 674.43,-561.03 726.09,-574.35"/>
<text text-anchor="middle" x="569.44" y="-518.49" font-family="Times New Roman,serif" font-size="14.00">.1</text>
</g>
<!-- r1&#45;&#45;192.168.0.0/24 -->
<g id="edge2" class="edge">
<title>r1&#45;&#45;192.168.0.0/24</title>
<path fill="none" stroke="black" d="M476.74,-538.04C434.27,-565.61 357.9,-615.19 312.35,-644.76"/>
<text text-anchor="middle" x="464.55" y="-552.11" font-family="Times New Roman,serif" font-size="14.00">.1</text>
</g>
<!-- zeus -->
<g id="node5" class="node">
<title>zeus</title>
<polygon fill="none" stroke="black" points="992.75,-811.69 868,-811.69 868,-772.19 992.75,-772.19 992.75,-811.69"/>
<text text-anchor="middle" x="930.37" y="-794.39" font-family="Times New Roman,serif" font-size="14.00">zeus</text>
<text text-anchor="middle" x="930.37" y="-778.64" font-family="Times New Roman,serif" font-size="14.00">NFS content server</text>
</g>
<!-- zeus&#45;&#45;10.0.0.0/24 -->
<g id="edge6" class="edge">
<title>zeus&#45;&#45;10.0.0.0/24</title>
<path fill="none" stroke="black" d="M915.24,-771.93C887.14,-734.78 826.94,-655.16 795.5,-613.59"/>
<text text-anchor="middle" x="894.91" y="-755.74" font-family="Times New Roman,serif" font-size="14.00">.2</text>
</g>
<!-- mx -->
<g id="node6" class="node">
<title>mx</title>
<polygon fill="none" stroke="black" points="1086.13,-652.89 953.88,-652.89 953.88,-613.39 1086.13,-613.39 1086.13,-652.89"/>
<text text-anchor="middle" x="1020" y="-635.59" font-family="Times New Roman,serif" font-size="14.00">mx</text>
<text text-anchor="middle" x="1020" y="-619.84" font-family="Times New Roman,serif" font-size="14.00">mail and news server</text>
</g>
<!-- mx&#45;&#45;10.0.0.0/24 -->
<g id="edge7" class="edge">
<title>mx&#45;&#45;10.0.0.0/24</title>
<path fill="none" stroke="black" d="M953.5,-620.61C913.9,-613.16 864.36,-603.83 827.6,-596.9"/>
<text text-anchor="middle" x="931.22" y="-620.88" font-family="Times New Roman,serif" font-size="14.00">.3</text>
</g>
<!-- backend -->
<g id="node7" class="node">
<title>backend</title>
<polygon fill="none" stroke="black" points="809.49,-850.18 728.99,-850.18 728.99,-810.68 809.49,-810.68 809.49,-850.18"/>
<text text-anchor="middle" x="769.24" y="-832.88" font-family="Times New Roman,serif" font-size="14.00">backend</text>
<text text-anchor="middle" x="769.24" y="-817.13" font-family="Times New Roman,serif" font-size="14.00">SQL server</text>
</g>
<!-- backend&#45;&#45;10.0.0.0/24 -->
<g id="edge10" class="edge">
<title>backend&#45;&#45;10.0.0.0/24</title>
<path fill="none" stroke="black" d="M769.75,-810.52C770.85,-767.38 773.46,-665.2 774.73,-615.38"/>
<text text-anchor="middle" x="760.57" y="-784.01" font-family="Times New Roman,serif" font-size="14.00">.6</text>
</g>
<!-- fshare -->
<g id="node8" class="node">
<title>fshare</title>
<polygon fill="none" stroke="black" points="387.26,-919.83 321.01,-919.83 321.01,-880.33 387.26,-880.33 387.26,-919.83"/>
<text text-anchor="middle" x="354.13" y="-902.53" font-family="Times New Roman,serif" font-size="14.00">fshare</text>
<text text-anchor="middle" x="354.13" y="-886.78" font-family="Times New Roman,serif" font-size="14.00">fileserver</text>
</g>
<!-- fshare&#45;&#45;192.168.0.0/24 -->
<g id="edge11" class="edge">
<title>fshare&#45;&#45;192.168.0.0/24</title>
<path fill="none" stroke="black" d="M347.27,-879.96C333.17,-838.65 300.92,-744.17 284.78,-696.89"/>
<text text-anchor="middle" x="331.33" y="-857.95" font-family="Times New Roman,serif" font-size="14.00">.4</text>
</g>
<!-- ws1 -->
<g id="node9" class="node">
<title>ws1</title>
<polygon fill="none" stroke="black" points="214.37,-927.06 160.37,-927.06 160.37,-891.06 214.37,-891.06 214.37,-927.06"/>
<text text-anchor="middle" x="187.37" y="-903.64" font-family="Times New Roman,serif" font-size="14.00">ws1</text>
</g>
<!-- ws1&#45;&#45;192.168.0.0/24 -->
<g id="edge12" class="edge">
<title>ws1&#45;&#45;192.168.0.0/24</title>
<path fill="none" stroke="black" d="M194.11,-890.62C209.42,-848.76 246.86,-746.41 265.01,-696.77"/>
<text text-anchor="middle" x="192.14" y="-862.27" font-family="Times New Roman,serif" font-size="14.00">.21</text>
</g>
<!-- ws2 -->
<g id="node10" class="node">
<title>ws2</title>
<polygon fill="none" stroke="black" points="161.85,-492.9 107.85,-492.9 107.85,-456.9 161.85,-456.9 161.85,-492.9"/>
<text text-anchor="middle" x="134.85" y="-469.47" font-family="Times New Roman,serif" font-size="14.00">ws2</text>
</g>
<!-- ws2&#45;&#45;192.168.0.0/24 -->
<g id="edge13" class="edge">
<title>ws2&#45;&#45;192.168.0.0/24</title>
<path fill="none" stroke="black" d="M148.05,-493.15C172.9,-527.48 226.69,-601.81 255.71,-641.91"/>
<text text-anchor="middle" x="168.15" y="-498.91" font-family="Times New Roman,serif" font-size="14.00">.22</text>
</g>
<!-- ws3 -->
<g id="node11" class="node">
<title>ws3</title>
<polygon fill="none" stroke="black" points="81.31,-801.6 27.31,-801.6 27.31,-765.6 81.31,-765.6 81.31,-801.6"/>
<text text-anchor="middle" x="54.31" y="-778.18" font-family="Times New Roman,serif" font-size="14.00">ws3</text>
</g>
<!-- ws3&#45;&#45;192.168.0.0/24 -->
<g id="edge14" class="edge">
<title>ws3&#45;&#45;192.168.0.0/24</title>
<path fill="none" stroke="black" d="M81.4,-769.53C119.07,-749.97 187.68,-714.33 232.34,-691.13"/>
<text text-anchor="middle" x="95.42" y="-745.87" font-family="Times New Roman,serif" font-size="14.00">.23</text>
</g>
<!-- ws4 -->
<g id="node12" class="node">
<title>ws4</title>
<polygon fill="none" stroke="black" points="54,-620.37 0,-620.37 0,-584.37 54,-584.37 54,-620.37"/>
<text text-anchor="middle" x="27" y="-596.94" font-family="Times New Roman,serif" font-size="14.00">ws4</text>
</g>
<!-- ws4&#45;&#45;192.168.0.0/24 -->
<g id="edge15" class="edge">
<title>ws4&#45;&#45;192.168.0.0/24</title>
<path fill="none" stroke="black" d="M54.04,-609.61C92.86,-620.01 165.38,-639.44 216.79,-653.21"/>
<text text-anchor="middle" x="76.69" y="-600.19" font-family="Times New Roman,serif" font-size="14.00">.24</text>
</g>
<!-- r2 -->
<g id="node13" class="node">
<title>r2</title>
<polygon fill="none" stroke="black" points="610.47,-39.5 503.72,-39.5 503.72,0 610.47,0 610.47,-39.5"/>
<text text-anchor="middle" x="557.1" y="-22.2" font-family="Times New Roman,serif" font-size="14.00">r2</text>
<text text-anchor="middle" x="557.1" y="-6.45" font-family="Times New Roman,serif" font-size="14.00">Internet gateway</text>
</g>
<!-- r2&#45;&#45;172.21.100.0/30 -->
<g id="edge4" class="edge">
<title>r2&#45;&#45;172.21.100.0/30</title>
<path fill="none" stroke="black" d="M549.01,-39.73C532.42,-80.76 494.46,-174.6 475.46,-221.55"/>
<text text-anchor="middle" x="550.21" y="-57.27" font-family="Times New Roman,serif" font-size="14.00">.2</text>
</g>
<!-- r3 -->
<g id="node14" class="node">
<title>r3</title>
<polygon fill="none" stroke="black" points="353.57,-83 246.82,-83 246.82,-43.5 353.57,-43.5 353.57,-83"/>
<text text-anchor="middle" x="300.19" y="-65.7" font-family="Times New Roman,serif" font-size="14.00">r3</text>
<text text-anchor="middle" x="300.19" y="-49.95" font-family="Times New Roman,serif" font-size="14.00">Internet gateway</text>
</g>
<!-- r3&#45;&#45;172.21.100.0/30 -->
<g id="edge5" class="edge">
<title>r3&#45;&#45;172.21.100.0/30</title>
<path fill="none" stroke="black" d="M317.74,-83.17C347.33,-116.75 407.14,-184.63 440.45,-222.44"/>
<text text-anchor="middle" x="338.82" y="-86.96" font-family="Times New Roman,serif" font-size="14.00">.3</text>
</g>
<!-- web1 -->
<g id="node15" class="node">
<title>web1</title>
<polygon fill="none" stroke="black" points="879.44,-376.43 825.44,-376.43 825.44,-340.43 879.44,-340.43 879.44,-376.43"/>
<text text-anchor="middle" x="852.44" y="-353.01" font-family="Times New Roman,serif" font-size="14.00">web1</text>
</g>
<!-- web1&#45;&#45;10.0.0.0/24 -->
<g id="edge8" class="edge">
<title>web1&#45;&#45;10.0.0.0/24</title>
<path fill="none" stroke="black" d="M846.27,-376.76C832.82,-416.71 800.78,-511.86 784.82,-559.26"/>
<text text-anchor="middle" x="848.83" y="-394.19" font-family="Times New Roman,serif" font-size="14.00">.4</text>
</g>
<!-- web2 -->
<g id="node16" class="node">
<title>web2</title>
<polygon fill="none" stroke="black" points="1019.2,-469.99 965.2,-469.99 965.2,-433.99 1019.2,-433.99 1019.2,-469.99"/>
<text text-anchor="middle" x="992.2" y="-446.57" font-family="Times New Roman,serif" font-size="14.00">web2</text>
</g>
<!-- web2&#45;&#45;10.0.0.0/24 -->
<g id="edge9" class="edge">
<title>web2&#45;&#45;10.0.0.0/24</title>
<path fill="none" stroke="black" d="M964.75,-469.1C925.57,-493.53 853.58,-538.39 810.56,-565.2"/>
<text text-anchor="middle" x="952.2" y="-482.95" font-family="Times New Roman,serif" font-size="14.00">.5</text>
</g>
</g>
</svg>
