<?xml version="1.0" encoding="UTF-8" standalone="no"?>
<!DOCTYPE svg PUBLIC "-//W3C//DTD SVG 1.1//EN"
 "http://www.w3.org/Graphics/SVG/1.1/DTD/svg11.dtd">
<!-- Generated by graphviz version 10.0.1 (20240210.2158)
 -->
<!-- Title: network Pages: 1 -->
<svg width="741pt" height="614pt"
 viewBox="0.00 0.00 741.29 614.44" xmlns="http://www.w3.org/2000/svg" xmlns:xlink="http://www.w3.org/1999/xlink">
<g id="graph0" class="graph" transform="scale(1 1) rotate(0) translate(4 610.44)">
<title>network</title>
<polygon fill="white" stroke="none" points="-4,4 -4,-610.44 737.29,-610.44 737.29,4 -4,4"/>
<!-- 172.21.100.0/30 -->
<g id="node1" class="node">
<title>172.21.100.0/30</title>
<ellipse fill="none" stroke="black" cx="389.11" cy="-425.53" rx="74.42" ry="27.93"/>
<text text-anchor="middle" x="389.11" y="-427.98" font-family="Times New Roman,serif" font-size="14.00">172.21.100.0/30</text>
<text text-anchor="middle" x="389.11" y="-412.23" font-family="Times New Roman,serif" font-size="14.00">LOCAL</text>
</g>
<!-- 10.0.0.0/24 -->
<g id="node2" class="node">
<title>10.0.0.0/24</title>
<ellipse fill="none" stroke="black" cx="202.09" cy="-199.91" rx="55.33" ry="27.93"/>
<text text-anchor="middle" x="202.09" y="-202.36" font-family="Times New Roman,serif" font-size="14.00">10.0.0.0/24</text>
<text text-anchor="middle" x="202.09" y="-186.61" font-family="Times New Roman,serif" font-size="14.00">DMZ</text>
</g>
<!-- 192.168.0.0/24 -->
<g id="node3" class="node">
<title>192.168.0.0/24</title>
<ellipse fill="none" stroke="black" cx="544.17" cy="-176.44" rx="69.65" ry="27.93"/>
<text text-anchor="middle" x="544.17" y="-178.89" font-family="Times New Roman,serif" font-size="14.00">192.168.0.0/24</text>
<text text-anchor="middle" x="544.17" y="-163.14" font-family="Times New Roman,serif" font-size="14.00">LAN</text>
</g>
<!-- r1 -->
<g id="node4" class="node">
<title>r1</title>
<polygon fill="none" stroke="black" points="417.96,-269.56 336.71,-269.56 336.71,-230.06 417.96,-230.06 417.96,-269.56"/>
<text text-anchor="middle" x="377.34" y="-252.26" font-family="Times New Roman,serif" font-size="14.00">r1</text>
<text text-anchor="middle" x="377.34" y="-236.51" font-family="Times New Roman,serif" font-size="14.00">core router </text>
</g>
<!-- r1&#45;&#45;172.21.100.0/30 -->
<g id="edge3" class="edge">
<title>r1&#45;&#45;172.21.100.0/30</title>
<path fill="none" stroke="black" d="M378.69,-269.97C380.78,-301.25 384.82,-361.58 387.21,-397.22"/>
<text text-anchor="middle" x="389.78" y="-284.7" font-family="Times New Roman,serif" font-size="14.00">.1</text>
</g>
<!-- r1&#45;&#45;10.0.0.0/24 -->
<g id="edge1" class="edge">
<title>r1&#45;&#45;10.0.0.0/24</title>
<path fill="none" stroke="black" d="M336.25,-238.11C310.65,-230.82 277.6,-221.41 250.7,-213.75"/>
<text text-anchor="middle" x="313.54" y="-236.33" font-family="Times New Roman,serif" font-size="14.00">.1</text>
</g>
<!-- r1&#45;&#45;192.168.0.0/24 -->
<g id="edge2" class="edge">
<title>r1&#45;&#45;192.168.0.0/24</title>
<path fill="none" stroke="black" d="M418.15,-231.87C441.88,-221.43 471.9,-208.23 496.68,-197.33"/>
<text text-anchor="middle" x="433.32" y="-209.15" font-family="Times New Roman,serif" font-size="14.00">.1</text>
</g>
<!-- r2 -->
<g id="node5" class="node">
<title>r2</title>
<polygon fill="none" stroke="black" points="456.61,-606.44 346.11,-606.44 346.11,-566.94 456.61,-566.94 456.61,-606.44"/>
<text text-anchor="middle" x="401.36" y="-589.14" font-family="Times New Roman,serif" font-size="14.00">r2</text>
<text text-anchor="middle" x="401.36" y="-573.39" font-family="Times New Roman,serif" font-size="14.00">Internet gateway </text>
</g>
<!-- r2&#45;&#45;172.21.100.0/30 -->
<g id="edge4" class="edge">
<title>r2&#45;&#45;172.21.100.0/30</title>
<path fill="none" stroke="black" d="M399.84,-566.61C397.67,-538.17 393.71,-486.05 391.25,-453.74"/>
<text text-anchor="middle" x="388.56" y="-541.13" font-family="Times New Roman,serif" font-size="14.00">.2</text>
</g>
<!-- zeus -->
<g id="node6" class="node">
<title>zeus</title>
<polygon fill="none" stroke="black" points="214.12,-375.62 85.62,-375.62 85.62,-336.12 214.12,-336.12 214.12,-375.62"/>
<text text-anchor="middle" x="149.87" y="-358.32" font-family="Times New Roman,serif" font-size="14.00">zeus</text>
<text text-anchor="middle" x="149.87" y="-342.57" font-family="Times New Roman,serif" font-size="14.00">NFS content server </text>
</g>
<!-- zeus&#45;&#45;10.0.0.0/24 -->
<g id="edge5" class="edge">
<title>zeus&#45;&#45;10.0.0.0/24</title>
<path fill="none" stroke="black" d="M156.59,-335.8C165.79,-308.32 182.35,-258.86 192.75,-227.8"/>
<text text-anchor="middle" x="153.99" y="-307.53" font-family="Times New Roman,serif" font-size="14.00">.2</text>
</g>
<!-- mx -->
<g id="node7" class="node">
<title>mx</title>
<polygon fill="none" stroke="black" points="287.91,-58.43 151.91,-58.43 151.91,-18.93 287.91,-18.93 287.91,-58.43"/>
<text text-anchor="middle" x="219.91" y="-41.13" font-family="Times New Roman,serif" font-size="14.00">mx</text>
<text text-anchor="middle" x="219.91" y="-25.38" font-family="Times New Roman,serif" font-size="14.00">mail and news server </text>
</g>
<!-- mx&#45;&#45;10.0.0.0/24 -->
<g id="edge6" class="edge">
<title>mx&#45;&#45;10.0.0.0/24</title>
<path fill="none" stroke="black" d="M217.69,-58.77C214.55,-87.22 208.78,-139.36 205.21,-171.68"/>
<text text-anchor="middle" x="225.06" y="-75.14" font-family="Times New Roman,serif" font-size="14.00">.3</text>
</g>
<!-- web1 -->
<g id="node8" class="node">
<title>web1</title>
<polygon fill="none" stroke="black" points="136.56,-72.75 82.56,-72.75 82.56,-36.75 136.56,-36.75 136.56,-72.75"/>
<text text-anchor="middle" x="109.56" y="-49.32" font-family="Times New Roman,serif" font-size="14.00">web1</text>
</g>
<!-- web1&#45;&#45;10.0.0.0/24 -->
<g id="edge7" class="edge">
<title>web1&#45;&#45;10.0.0.0/24</title>
<path fill="none" stroke="black" d="M121.28,-73.13C137.37,-98.38 166.43,-143.97 184.97,-173.04"/>
<text text-anchor="middle" x="140.68" y="-80.06" font-family="Times New Roman,serif" font-size="14.00">.4</text>
</g>
<!-- web2 -->
<g id="node9" class="node">
<title>web2</title>
<polygon fill="none" stroke="black" points="84.24,-303.51 30.24,-303.51 30.24,-267.51 84.24,-267.51 84.24,-303.51"/>
<text text-anchor="middle" x="57.24" y="-280.08" font-family="Times New Roman,serif" font-size="14.00">web2</text>
</g>
<!-- web2&#45;&#45;10.0.0.0/24 -->
<g id="edge8" class="edge">
<title>web2&#45;&#45;10.0.0.0/24</title>
<path fill="none" stroke="black" d="M84.48,-269.41C107.43,-255.85 140.45,-236.33 165.67,-221.43"/>
<text text-anchor="middle" x="97.48" y="-245.01" font-family="Times New Roman,serif" font-size="14.00">.5</text>
</g>
<!-- backend -->
<g id="node10" class="node">
<title>backend</title>
<polygon fill="none" stroke="black" points="84.25,-179.52 0,-179.52 0,-140.02 84.25,-140.02 84.25,-179.52"/>
<text text-anchor="middle" x="42.12" y="-162.22" font-family="Times New Roman,serif" font-size="14.00">backend</text>
<text text-anchor="middle" x="42.12" y="-146.47" font-family="Times New Roman,serif" font-size="14.00">SQL server </text>
</g>
<!-- backend&#45;&#45;10.0.0.0/24 -->
<g id="edge9" class="edge">
<title>backend&#45;&#45;10.0.0.0/24</title>
<path fill="none" stroke="black" d="M84.57,-170.42C105.31,-175.62 130.39,-181.91 152.05,-187.35"/>
<text text-anchor="middle" x="107.16" y="-160.64" font-family="Times New Roman,serif" font-size="14.00">.6</text>
</g>
<!-- fshare -->
<g id="node11" class="node">
<title>fshare</title>
<polygon fill="none" stroke="black" points="733.29,-137.36 663.29,-137.36 663.29,-97.86 733.29,-97.86 733.29,-137.36"/>
<text text-anchor="middle" x="698.29" y="-120.06" font-family="Times New Roman,serif" font-size="14.00">fshare</text>
<text text-anchor="middle" x="698.29" y="-104.31" font-family="Times New Roman,serif" font-size="14.00">fileserver </text>
</g>
<!-- fshare&#45;&#45;192.168.0.0/24 -->
<g id="edge10" class="edge">
<title>fshare&#45;&#45;192.168.0.0/24</title>
<path fill="none" stroke="black" d="M662.93,-131.11C642.84,-138.77 617.35,-148.51 595.14,-156.98"/>
<text text-anchor="middle" x="646.92" y="-142.2" font-family="Times New Roman,serif" font-size="14.00">.4</text>
</g>
<!-- ws1 -->
<g id="node12" class="node">
<title>ws1</title>
<polygon fill="none" stroke="black" points="645.41,-39.79 591.41,-39.79 591.41,-3.79 645.41,-3.79 645.41,-39.79"/>
<text text-anchor="middle" x="618.41" y="-16.36" font-family="Times New Roman,serif" font-size="14.00">ws1</text>
</g>
<!-- ws1&#45;&#45;192.168.0.0/24 -->
<g id="edge11" class="edge">
<title>ws1&#45;&#45;192.168.0.0/24</title>
<path fill="none" stroke="black" d="M609.61,-40.13C596.7,-67.02 572.55,-117.32 557.47,-148.73"/>
<text text-anchor="middle" x="609.35" y="-57.71" font-family="Times New Roman,serif" font-size="14.00">.21</text>
</g>
<!-- ws2 -->
<g id="node13" class="node">
<title>ws2</title>
<polygon fill="none" stroke="black" points="533.43,-36 479.43,-36 479.43,0 533.43,0 533.43,-36"/>
<text text-anchor="middle" x="506.43" y="-12.57" font-family="Times New Roman,serif" font-size="14.00">ws2</text>
</g>
<!-- ws2&#45;&#45;192.168.0.0/24 -->
<g id="edge12" class="edge">
<title>ws2&#45;&#45;192.168.0.0/24</title>
<path fill="none" stroke="black" d="M510.83,-36.49C517.38,-63.99 529.75,-115.92 537.44,-148.21"/>
<text text-anchor="middle" x="525.12" y="-49.09" font-family="Times New Roman,serif" font-size="14.00">.22</text>
</g>
<!-- ws3 -->
<g id="node14" class="node">
<title>ws3</title>
<polygon fill="none" stroke="black" points="642.55,-342.32 588.55,-342.32 588.55,-306.32 642.55,-306.32 642.55,-342.32"/>
<text text-anchor="middle" x="615.55" y="-318.89" font-family="Times New Roman,serif" font-size="14.00">ws3</text>
</g>
<!-- ws3&#45;&#45;192.168.0.0/24 -->
<g id="edge13" class="edge">
<title>ws3&#45;&#45;192.168.0.0/24</title>
<path fill="none" stroke="black" d="M606.66,-305.89C594.32,-280.34 571.93,-233.95 557.57,-204.2"/>
<text text-anchor="middle" x="588.84" y="-285.92" font-family="Times New Roman,serif" font-size="14.00">.23</text>
</g>
<!-- ws4 -->
<g id="node15" class="node">
<title>ws4</title>
<polygon fill="none" stroke="black" points="725.78,-261.91 671.78,-261.91 671.78,-225.91 725.78,-225.91 725.78,-261.91"/>
<text text-anchor="middle" x="698.78" y="-238.48" font-family="Times New Roman,serif" font-size="14.00">ws4</text>
</g>
<!-- ws4&#45;&#45;192.168.0.0/24 -->
<g id="edge14" class="edge">
<title>ws4&#45;&#45;192.168.0.0/24</title>
<path fill="none" stroke="black" d="M671.49,-232C649.47,-222.39 617.96,-208.64 591.8,-197.23"/>
<text text-anchor="middle" x="648.5" y="-227.15" font-family="Times New Roman,serif" font-size="14.00">.24</text>
</g>
</g>
</svg>
