<?xml version="1.0" encoding="UTF-8" standalone="no"?>
<!DOCTYPE svg PUBLIC "-//W3C//DTD SVG 1.1//EN"
 "http://www.w3.org/Graphics/SVG/1.1/DTD/svg11.dtd">
<!-- Generated by graphviz version 10.0.1 (20240210.2158)
 -->
<!-- Title: ni Pages: 1 -->
<svg width="692pt" height="649pt"
 viewBox="0.00 0.00 692.00 649.00" xmlns="http://www.w3.org/2000/svg" xmlns:xlink="http://www.w3.org/1999/xlink">
<g id="graph0" class="graph" transform="scale(1 1) rotate(0) translate(4 645)">
<title>ni</title>
<polygon fill="white" stroke="none" points="-4,4 -4,-645 688,-645 688,4 -4,4"/>
<g id="clust1" class="cluster">
<title>cluster11</title>
<polygon fill="lightgrey" stroke="lightgrey" points="432.14,-455.8 432.14,-640.8 684.14,-640.8 684.14,-455.8 432.14,-455.8"/>
<text text-anchor="middle" x="558.14" y="-623.5" font-family="Times New Roman,serif" font-size="14.00">node attr</text>
</g>
<g id="clust2" class="cluster">
<title>cluster10</title>
<polygon fill="lightgrey" stroke="lightgrey" points="456.14,-192.3 456.14,-312.3 562.14,-312.3 562.14,-192.3 456.14,-192.3"/>
<text text-anchor="middle" x="509.14" y="-295" font-family="Times New Roman,serif" font-size="14.00">edge attr</text>
</g>
<g id="clust3" class="cluster">
<title>cluster12</title>
<polygon fill="#343434" stroke="black" points="0.14,-72.3 0.14,-420.3 418.14,-420.3 418.14,-72.3 0.14,-72.3"/>
<text text-anchor="middle" x="209.14" y="-399.2" font-family="Times New Roman,serif" font-size="18.00" fill="white">sub graph</text>
</g>
<g id="clust4" class="cluster">
<title>cluster_0</title>
<polygon fill="#ababab" stroke="black" points="36.28,-72.54 36.28,-236.54 173.28,-236.54 173.28,-72.54 36.28,-72.54"/>
<text text-anchor="middle" x="59.65" y="-215.44" font-family="Times New Roman,serif" font-size="18.00" fill="white">clu0</text>
</g>
<g id="clust5" class="cluster">
<title>cluster_1</title>
<polygon fill="#ababab" stroke="black" points="0.36,-249.27 0.36,-392.27 162.36,-392.27 162.36,-249.27 0.36,-249.27"/>
<text text-anchor="middle" x="23.74" y="-371.17" font-family="Times New Roman,serif" font-size="18.00" fill="white">clu1</text>
</g>
<g id="clust6" class="cluster">
<title>cluster_2</title>
<polygon fill="#888888" stroke="black" points="184.69,-106.95 184.69,-216.95 265.69,-216.95 265.69,-106.95 184.69,-106.95"/>
<text text-anchor="middle" x="208.06" y="-195.85" font-family="Times New Roman,serif" font-size="18.00" fill="white">clu2</text>
</g>
<g id="clust7" class="cluster">
<title>cluster_3</title>
<polygon fill="#888888" stroke="black" points="171.22,-277.06 171.22,-379.06 292.22,-379.06 292.22,-277.06 171.22,-277.06"/>
<text text-anchor="middle" x="194.6" y="-357.96" font-family="Times New Roman,serif" font-size="18.00" fill="white">clu3</text>
</g>
<g id="clust9" class="cluster">
<title>cluster_21</title>
<polygon fill="none" stroke="black" points="240.14,-456.3 240.14,-602.3 394.14,-602.3 394.14,-456.3 240.14,-456.3"/>
<text text-anchor="middle" x="317.14" y="-585" font-family="Times New Roman,serif" font-size="14.00">tree1</text>
</g>
<g id="clust10" class="cluster">
<title>cluster_22</title>
<polygon fill="none" stroke="black" points="48.14,-456.3 48.14,-602.3 202.14,-602.3 202.14,-456.3 48.14,-456.3"/>
<text text-anchor="middle" x="125.14" y="-585" font-family="Times New Roman,serif" font-size="14.00">tree2</text>
</g>
<g id="clust11" class="cluster">
<title>cluster_23</title>
<polygon fill="none" stroke="black" points="456.14,-0.3 456.14,-146.3 610.14,-146.3 610.14,-0.3 456.14,-0.3"/>
<text text-anchor="middle" x="533.14" y="-129" font-family="Times New Roman,serif" font-size="14.00">tree3</text>
</g>
<!-- cluster11&#45;X1 -->
<g id="node1" class="node">
<title>cluster11&#45;X1</title>
<polygon fill="#cc9999" stroke="#336666" points="548.29,-550.29 440.29,-550.29 440.29,-463.89 548.29,-463.89 548.29,-550.29"/>
<text text-anchor="middle" x="494.29" y="-500.89" font-family="Migu 1M" font-size="16.00" fill="blue">JJ2</text>
</g>
<!-- cluster11&#45;X2 -->
<g id="node2" class="node">
<title>cluster11&#45;X2</title>
<ellipse fill="none" stroke="black" cx="618.29" cy="-592.09" rx="58.05" ry="18"/>
<text text-anchor="middle" x="618.29" y="-586.67" font-family="Times New Roman,serif" font-size="14.00">cluster11&#45;X2</text>
</g>
<!-- cluster10&#45;X1 -->
<g id="node3" class="node">
<title>cluster10&#45;X1</title>
<ellipse fill="none" stroke="black" cx="491.2" cy="-218.29" rx="27" ry="18"/>
<text text-anchor="middle" x="491.2" y="-212.87" font-family="Times New Roman,serif" font-size="14.00">X1</text>
</g>
<!-- cluster10&#45;X2 -->
<g id="node4" class="node">
<title>cluster10&#45;X2</title>
<ellipse fill="none" stroke="black" cx="526.69" cy="-263.6" rx="27" ry="18"/>
<text text-anchor="middle" x="526.69" y="-258.17" font-family="Times New Roman,serif" font-size="14.00">X2</text>
</g>
<!-- cluster10&#45;X1&#45;&#45;cluster10&#45;X2 -->
<g id="edge1" class="edge">
<title>cluster10&#45;X1&#45;&#45;cluster10&#45;X2</title>
<path fill="none" stroke="blue" d="M510.91,-243.46C510.98,-243.54 511.04,-243.62 511.11,-243.71"/>
<polygon fill="blue" stroke="blue" points="513.87,-241.55 504.95,-235.84 508.36,-245.87 513.87,-241.55"/>
<polygon fill="blue" stroke="blue" points="504.16,-240.51 513.08,-246.23 509.67,-236.2 504.16,-240.51"/>
<text text-anchor="middle" x="500.13" y="-230.28" font-family="Migu 1M" font-size="14.00" fill="red">a&#45;b</text>
<text text-anchor="middle" x="527.23" y="-221.15" font-family="Migu 1M" font-size="14.00" fill="red">head</text>
<text text-anchor="middle" x="490.79" y="-250.82" font-family="Migu 1M" font-size="14.00" fill="red">tail</text>
</g>
<!-- alpha -->
<g id="node5" class="node">
<title>alpha</title>
<polygon fill="red" stroke="red" points="90.09,-157.72 36.09,-157.72 36.09,-121.72 90.09,-121.72 90.09,-157.72"/>
<text text-anchor="middle" x="63.09" y="-134.29" font-family="Times New Roman,serif" font-size="14.00">alpha</text>
</g>
<!-- beta -->
<g id="node6" class="node">
<title>beta</title>
<polygon fill="red" stroke="red" points="118.01,-108.86 64.01,-108.86 64.01,-72.86 118.01,-72.86 118.01,-108.86"/>
<text text-anchor="middle" x="91.01" y="-85.43" font-family="Times New Roman,serif" font-size="14.00">beta</text>
</g>
<!-- alpha&#45;&#45;beta -->
<g id="edge2" class="edge">
<title>alpha&#45;&#45;beta</title>
<path fill="none" stroke="white" d="M73.64,-121.25C75.87,-117.35 78.21,-113.25 80.44,-109.36"/>
</g>
<!-- gamma -->
<g id="node7" class="node">
<title>gamma</title>
<polygon fill="red" stroke="red" points="173.31,-153.14 117.56,-153.14 117.56,-117.14 173.31,-117.14 173.31,-153.14"/>
<text text-anchor="middle" x="145.44" y="-129.72" font-family="Times New Roman,serif" font-size="14.00">gamma</text>
</g>
<!-- alpha&#45;&#45;gamma -->
<g id="edge3" class="edge">
<title>alpha&#45;&#45;gamma</title>
<path fill="none" stroke="white" d="M90.51,-138.19C99.12,-137.72 108.63,-137.19 117.29,-136.71"/>
</g>
<!-- eta -->
<g id="node8" class="node">
<title>eta</title>
<polygon fill="red" stroke="red" points="129.32,-208.79 75.32,-208.79 75.32,-172.79 129.32,-172.79 129.32,-208.79"/>
<text text-anchor="middle" x="102.32" y="-185.36" font-family="Times New Roman,serif" font-size="14.00">eta</text>
</g>
<!-- alpha&#45;&#45;eta -->
<g id="edge4" class="edge">
<title>alpha&#45;&#45;eta</title>
<path fill="none" stroke="white" d="M77.25,-158.15C80.85,-162.84 84.72,-167.87 88.31,-172.55"/>
</g>
<!-- delta -->
<g id="node9" class="node">
<title>delta</title>
<polygon fill="red" stroke="red" points="81.86,-311.95 27.86,-311.95 27.86,-275.95 81.86,-275.95 81.86,-311.95"/>
<text text-anchor="middle" x="54.86" y="-288.53" font-family="Times New Roman,serif" font-size="14.00">delta</text>
</g>
<!-- alpha&#45;&#45;delta -->
<g id="edge11" class="edge">
<title>alpha&#45;&#45;delta</title>
<path fill="none" stroke="white" d="M62.11,-158.02C60.53,-187.7 57.42,-246.01 55.84,-275.68"/>
</g>
<!-- lambda -->
<g id="node13" class="node">
<title>lambda</title>
<polygon fill="red" stroke="red" points="265.92,-117.5 265.92,-132.41 242.09,-142.95 208.38,-142.95 184.55,-132.41 184.55,-117.5 208.38,-106.95 242.09,-106.95 265.92,-117.5"/>
<text text-anchor="middle" x="225.24" y="-119.53" font-family="Times New Roman,serif" font-size="14.00">lambda</text>
</g>
<!-- beta&#45;&#45;lambda -->
<g id="edge12" class="edge">
<title>beta&#45;&#45;lambda</title>
<path fill="none" stroke="white" d="M118.5,-97.84C138.59,-102.94 166.07,-109.92 188.12,-115.52"/>
</g>
<!-- gamma&#45;&#45;lambda -->
<g id="edge13" class="edge">
<title>gamma&#45;&#45;lambda</title>
<path fill="none" stroke="white" d="M173.8,-131.52C177.2,-131.09 180.73,-130.64 184.27,-130.18"/>
</g>
<!-- mu -->
<g id="node14" class="node">
<title>mu</title>
<polygon fill="red" stroke="red" points="252.28,-163.44 252.28,-178.35 236.46,-188.9 214.09,-188.9 198.28,-178.35 198.28,-163.44 214.09,-152.9 236.46,-152.9 252.28,-163.44"/>
<text text-anchor="middle" x="225.28" y="-165.47" font-family="Times New Roman,serif" font-size="14.00">mu</text>
</g>
<!-- eta&#45;&#45;mu -->
<g id="edge15" class="edge">
<title>eta&#45;&#45;mu</title>
<path fill="none" stroke="white" d="M129.61,-186.37C149.98,-183.08 177.71,-178.59 198.07,-175.3"/>
</g>
<!-- epsilon -->
<g id="node10" class="node">
<title>epsilon</title>
<polygon fill="red" stroke="red" points="162.67,-364.61 106.92,-364.61 106.92,-328.61 162.67,-328.61 162.67,-364.61"/>
<text text-anchor="middle" x="134.8" y="-341.19" font-family="Times New Roman,serif" font-size="14.00">epsilon</text>
</g>
<!-- delta&#45;&#45;epsilon -->
<g id="edge5" class="edge">
<title>delta&#45;&#45;epsilon</title>
<path fill="none" stroke="white" d="M81.93,-311.78C89.99,-317.09 98.83,-322.92 106.95,-328.26"/>
</g>
<!-- zeta -->
<g id="node11" class="node">
<title>zeta</title>
<polygon fill="red" stroke="red" points="150.67,-285.49 96.67,-285.49 96.67,-249.49 150.67,-249.49 150.67,-285.49"/>
<text text-anchor="middle" x="123.67" y="-262.07" font-family="Times New Roman,serif" font-size="14.00">zeta</text>
</g>
<!-- delta&#45;&#45;zeta -->
<g id="edge6" class="edge">
<title>delta&#45;&#45;zeta</title>
<path fill="none" stroke="white" d="M82.06,-283.49C86.72,-281.7 91.56,-279.84 96.22,-278.05"/>
</g>
<!-- theta -->
<g id="node12" class="node">
<title>theta</title>
<polygon fill="red" stroke="red" points="54.23,-364.14 0.23,-364.14 0.23,-328.14 54.23,-328.14 54.23,-364.14"/>
<text text-anchor="middle" x="27.23" y="-340.71" font-family="Times New Roman,serif" font-size="14.00">theta</text>
</g>
<!-- delta&#45;&#45;theta -->
<g id="edge7" class="edge">
<title>delta&#45;&#45;theta</title>
<path fill="none" stroke="white" d="M45.2,-312.21C42.52,-317.26 39.61,-322.75 36.93,-327.81"/>
</g>
<!-- nu -->
<g id="node15" class="node">
<title>nu</title>
<polygon fill="red" stroke="red" points="215.12,-313.26 182.7,-313.26 171.16,-277.26 226.67,-277.26 215.12,-313.26"/>
<text text-anchor="middle" x="198.91" y="-289.83" font-family="Times New Roman,serif" font-size="14.00">nu</text>
</g>
<!-- epsilon&#45;&#45;nu -->
<g id="edge14" class="edge">
<title>epsilon&#45;&#45;nu</title>
<path fill="none" stroke="white" d="M157.58,-328.36C165.36,-322.13 173.93,-315.27 181.24,-309.41"/>
</g>
<!-- lambda&#45;&#45;mu -->
<g id="edge8" class="edge">
<title>lambda&#45;&#45;mu</title>
<path fill="none" stroke="white" d="M225.25,-143.38C225.26,-146.37 225.26,-149.47 225.26,-152.47"/>
</g>
<!-- xi -->
<g id="node16" class="node">
<title>xi</title>
<polygon fill="red" stroke="red" points="280.99,-351.02 249.45,-351.02 238.22,-315.02 292.22,-315.02 280.99,-351.02"/>
<text text-anchor="middle" x="265.22" y="-327.6" font-family="Times New Roman,serif" font-size="14.00">xi</text>
</g>
<!-- nu&#45;&#45;xi -->
<g id="edge9" class="edge">
<title>nu&#45;&#45;xi</title>
<path fill="none" stroke="white" d="M217.74,-305.98C224.32,-309.73 231.84,-314.01 238.92,-318.04"/>
</g>
<!-- iota -->
<g id="node17" class="node">
<title>iota</title>
<polygon fill="red" stroke="red" points="334.71,-133.67 300.6,-115.67 334.71,-97.67 368.82,-115.67 334.71,-133.67"/>
<polyline fill="none" stroke="red" points="311.21,-121.27 311.21,-110.07"/>
<polyline fill="none" stroke="red" points="324.1,-103.27 345.32,-103.27"/>
<polyline fill="none" stroke="red" points="358.2,-110.07 358.2,-121.27"/>
<polyline fill="none" stroke="red" points="345.32,-128.07 324.1,-128.07"/>
<text text-anchor="middle" x="334.71" y="-110.24" font-family="Times New Roman,serif" font-size="14.00">iota</text>
</g>
<!-- kappa -->
<g id="node18" class="node">
<title>kappa</title>
<polygon fill="red" stroke="red" points="371.18,-180.22 324.37,-162.22 371.18,-144.22 417.99,-162.22 371.18,-180.22"/>
<polyline fill="none" stroke="red" points="335.57,-166.53 335.57,-157.92"/>
<polyline fill="none" stroke="red" points="359.98,-148.53 382.38,-148.53"/>
<polyline fill="none" stroke="red" points="406.79,-157.92 406.79,-166.53"/>
<polyline fill="none" stroke="red" points="382.38,-175.92 359.98,-175.92"/>
<text text-anchor="middle" x="371.18" y="-156.8" font-family="Times New Roman,serif" font-size="14.00">kappa</text>
</g>
<!-- iota&#45;&#45;kappa -->
<g id="edge10" class="edge">
<title>iota&#45;&#45;kappa</title>
<path fill="none" stroke="white" d="M344.67,-128.39C349.48,-134.53 355.26,-141.91 360.2,-148.21"/>
</g>
<!-- cluster_21.alpha1 -->
<g id="node19" class="node">
<title>cluster_21.alpha1</title>
<ellipse fill="none" stroke="black" cx="286.41" cy="-482.17" rx="34.6" ry="18"/>
<text text-anchor="middle" x="286.41" y="-476.74" font-family="Times New Roman,serif" font-size="14.00">alpha1</text>
</g>
<!-- cluster_21.beta -->
<g id="node20" class="node">
<title>cluster_21.beta</title>
<ellipse fill="none" stroke="black" cx="274.9" cy="-535.29" rx="27" ry="18"/>
<text text-anchor="middle" x="274.9" y="-529.86" font-family="Times New Roman,serif" font-size="14.00">beta</text>
</g>
<!-- cluster_21.alpha1&#45;&#45;cluster_21.beta -->
<g id="edge16" class="edge">
<title>cluster_21.alpha1&#45;&#45;cluster_21.beta</title>
<path fill="none" stroke="black" d="M282.45,-500.45C281.28,-505.85 280,-511.76 278.83,-517.15"/>
</g>
<!-- cluster_21.yan -->
<g id="node21" class="node">
<title>cluster_21.yan</title>
<ellipse fill="none" stroke="black" cx="359.46" cy="-496.44" rx="27" ry="18"/>
<text text-anchor="middle" x="359.46" y="-491.01" font-family="Times New Roman,serif" font-size="14.00">yan</text>
</g>
<!-- cluster_21.beta&#45;&#45;cluster_21.yan -->
<g id="edge17" class="edge">
<title>cluster_21.beta&#45;&#45;cluster_21.yan</title>
<path fill="none" stroke="black" d="M297.56,-524.88C309.79,-519.26 324.83,-512.35 337.03,-506.74"/>
</g>
<!-- cluster_21.top -->
<g id="node22" class="node">
<title>cluster_21.top</title>
<ellipse fill="none" stroke="black" cx="346.93" cy="-552.8" rx="27" ry="18"/>
<text text-anchor="middle" x="346.93" y="-547.38" font-family="Times New Roman,serif" font-size="14.00">top</text>
</g>
<!-- cluster_21.yan&#45;&#45;cluster_21.top -->
<g id="edge18" class="edge">
<title>cluster_21.yan&#45;&#45;cluster_21.top</title>
<path fill="none" stroke="black" d="M355.42,-514.58C353.99,-521.02 352.38,-528.26 350.95,-534.69"/>
</g>
<!-- cluster_21.top&#45;&#45;cluster_21.alpha1 -->
<g id="edge19" class="edge">
<title>cluster_21.top&#45;&#45;cluster_21.alpha1</title>
<path fill="none" stroke="black" d="M333.2,-536.77C323.43,-525.38 310.36,-510.11 300.51,-498.62"/>
</g>
<!-- cluster_22.alpha1 -->
<g id="node23" class="node">
<title>cluster_22.alpha1</title>
<ellipse fill="none" stroke="black" cx="94.41" cy="-482.17" rx="34.6" ry="18"/>
<text text-anchor="middle" x="94.41" y="-476.74" font-family="Times New Roman,serif" font-size="14.00">alpha1</text>
</g>
<!-- cluster_22.beta -->
<g id="node24" class="node">
<title>cluster_22.beta</title>
<ellipse fill="none" stroke="black" cx="82.9" cy="-535.29" rx="27" ry="18"/>
<text text-anchor="middle" x="82.9" y="-529.86" font-family="Times New Roman,serif" font-size="14.00">beta</text>
</g>
<!-- cluster_22.alpha1&#45;&#45;cluster_22.beta -->
<g id="edge20" class="edge">
<title>cluster_22.alpha1&#45;&#45;cluster_22.beta</title>
<path fill="none" stroke="black" d="M90.45,-500.45C89.28,-505.85 88,-511.76 86.83,-517.15"/>
</g>
<!-- cluster_22.yan -->
<g id="node25" class="node">
<title>cluster_22.yan</title>
<ellipse fill="none" stroke="black" cx="167.46" cy="-496.44" rx="27" ry="18"/>
<text text-anchor="middle" x="167.46" y="-491.01" font-family="Times New Roman,serif" font-size="14.00">yan</text>
</g>
<!-- cluster_22.beta&#45;&#45;cluster_22.yan -->
<g id="edge21" class="edge">
<title>cluster_22.beta&#45;&#45;cluster_22.yan</title>
<path fill="none" stroke="black" d="M105.56,-524.88C117.79,-519.26 132.83,-512.35 145.03,-506.74"/>
</g>
<!-- cluster_22.top -->
<g id="node26" class="node">
<title>cluster_22.top</title>
<ellipse fill="none" stroke="black" cx="154.93" cy="-552.8" rx="27" ry="18"/>
<text text-anchor="middle" x="154.93" y="-547.38" font-family="Times New Roman,serif" font-size="14.00">top</text>
</g>
<!-- cluster_22.yan&#45;&#45;cluster_22.top -->
<g id="edge22" class="edge">
<title>cluster_22.yan&#45;&#45;cluster_22.top</title>
<path fill="none" stroke="black" d="M163.42,-514.58C161.99,-521.02 160.38,-528.26 158.95,-534.69"/>
</g>
<!-- cluster_22.top&#45;&#45;cluster_22.alpha1 -->
<g id="edge23" class="edge">
<title>cluster_22.top&#45;&#45;cluster_22.alpha1</title>
<path fill="none" stroke="black" d="M141.2,-536.77C131.43,-525.38 118.36,-510.11 108.51,-498.62"/>
</g>
<!-- cluster_23.alpha1 -->
<g id="node27" class="node">
<title>cluster_23.alpha1</title>
<ellipse fill="none" stroke="black" cx="502.41" cy="-26.17" rx="34.6" ry="18"/>
<text text-anchor="middle" x="502.41" y="-20.74" font-family="Times New Roman,serif" font-size="14.00">alpha1</text>
</g>
<!-- cluster_23.beta -->
<g id="node28" class="node">
<title>cluster_23.beta</title>
<ellipse fill="none" stroke="black" cx="490.9" cy="-79.29" rx="27" ry="18"/>
<text text-anchor="middle" x="490.9" y="-73.86" font-family="Times New Roman,serif" font-size="14.00">beta</text>
</g>
<!-- cluster_23.alpha1&#45;&#45;cluster_23.beta -->
<g id="edge24" class="edge">
<title>cluster_23.alpha1&#45;&#45;cluster_23.beta</title>
<path fill="none" stroke="black" d="M498.45,-44.45C497.28,-49.85 496,-55.76 494.83,-61.15"/>
</g>
<!-- cluster_23.yan -->
<g id="node29" class="node">
<title>cluster_23.yan</title>
<ellipse fill="none" stroke="black" cx="575.46" cy="-40.44" rx="27" ry="18"/>
<text text-anchor="middle" x="575.46" y="-35.01" font-family="Times New Roman,serif" font-size="14.00">yan</text>
</g>
<!-- cluster_23.beta&#45;&#45;cluster_23.yan -->
<g id="edge25" class="edge">
<title>cluster_23.beta&#45;&#45;cluster_23.yan</title>
<path fill="none" stroke="black" d="M513.56,-68.88C525.79,-63.26 540.83,-56.35 553.03,-50.74"/>
</g>
<!-- cluster_23.top -->
<g id="node30" class="node">
<title>cluster_23.top</title>
<ellipse fill="none" stroke="black" cx="562.93" cy="-96.8" rx="27" ry="18"/>
<text text-anchor="middle" x="562.93" y="-91.38" font-family="Times New Roman,serif" font-size="14.00">top</text>
</g>
<!-- cluster_23.yan&#45;&#45;cluster_23.top -->
<g id="edge26" class="edge">
<title>cluster_23.yan&#45;&#45;cluster_23.top</title>
<path fill="none" stroke="black" d="M571.42,-58.58C569.99,-65.02 568.38,-72.26 566.95,-78.69"/>
</g>
<!-- cluster_23.top&#45;&#45;cluster_23.alpha1 -->
<g id="edge27" class="edge">
<title>cluster_23.top&#45;&#45;cluster_23.alpha1</title>
<path fill="none" stroke="black" d="M549.2,-80.77C539.43,-69.38 526.36,-54.11 516.51,-42.62"/>
</g>
</g>
</svg>
