<?xml version="1.0" encoding="UTF-8" standalone="no"?>
<!DOCTYPE svg PUBLIC "-//W3C//DTD SVG 1.1//EN"
 "http://www.w3.org/Graphics/SVG/1.1/DTD/svg11.dtd">
<!-- Generated by graphviz version 2.43.0 (0)
 -->
<!-- Title: ni Pages: 1 -->
<svg width="815pt" height="753pt"
 viewBox="0.00 0.00 815.00 753.00" xmlns="http://www.w3.org/2000/svg" xmlns:xlink="http://www.w3.org/1999/xlink">
<g id="graph0" class="graph" transform="scale(1 1) rotate(0) translate(4 749)">
<title>ni</title>
<polygon fill="white" stroke="transparent" points="-4,4 -4,-749 811,-749 811,4 -4,4"/>
<g id="clust1" class="cluster">
<title>cluster11</title>
<polygon fill="lightgrey" stroke="lightgrey" points="531.74,-560.14 531.74,-745.14 806.74,-745.14 806.74,-560.14 531.74,-560.14"/>
<text text-anchor="middle" x="669.24" y="-729.94" font-family="Times,serif" font-size="14.00">node attr</text>
</g>
<g id="clust2" class="cluster">
<title>cluster10</title>
<polygon fill="lightgrey" stroke="lightgrey" points="588.24,-223.64 588.24,-307.64 722.24,-307.64 722.24,-223.64 588.24,-223.64"/>
<text text-anchor="middle" x="655.24" y="-292.44" font-family="Times,serif" font-size="14.00">edge attr</text>
</g>
<g id="clust3" class="cluster">
<title>cluster12</title>
<polygon fill="#343434" stroke="black" points="0.24,-84.14 0.24,-515.14 532.24,-515.14 532.24,-84.14 0.24,-84.14"/>
<text text-anchor="middle" x="266.24" y="-496.74" font-family="Times,serif" font-size="18.00" fill="white">sub graph</text>
</g>
<g id="clust4" class="cluster">
<title>cluster_0</title>
<polygon fill="#ababab" stroke="black" points="-0.16,-168.17 -0.16,-347.17 162.84,-347.17 162.84,-168.17 -0.16,-168.17"/>
<text text-anchor="middle" x="27.34" y="-328.77" font-family="Times,serif" font-size="18.00" fill="white">clu0</text>
</g>
<g id="clust5" class="cluster">
<title>cluster_1</title>
<polygon fill="#ababab" stroke="black" points="171.49,-201.57 171.49,-361.57 324.49,-361.57 324.49,-201.57 171.49,-201.57"/>
<text text-anchor="middle" x="198.99" y="-343.17" font-family="Times,serif" font-size="18.00" fill="white">clu1</text>
</g>
<g id="clust6" class="cluster">
<title>cluster_2</title>
<polygon fill="#888888" stroke="black" points="40.44,-83.94 40.44,-159.94 208.44,-159.94 208.44,-83.94 40.44,-83.94"/>
<text text-anchor="middle" x="67.94" y="-141.54" font-family="Times,serif" font-size="18.00" fill="white">clu2</text>
</g>
<g id="clust7" class="cluster">
<title>cluster_3</title>
<polygon fill="#888888" stroke="black" points="177.93,-374.28 177.93,-487.28 273.93,-487.28 273.93,-374.28 177.93,-374.28"/>
<text text-anchor="middle" x="205.43" y="-468.88" font-family="Times,serif" font-size="18.00" fill="white">clu3</text>
</g>
<g id="clust9" class="cluster">
<title>cluster_21</title>
<polygon fill="none" stroke="black" points="280.24,-560.14 280.24,-731.14 472.24,-731.14 472.24,-560.14 280.24,-560.14"/>
<text text-anchor="middle" x="376.24" y="-715.94" font-family="Times,serif" font-size="14.00">tree1</text>
</g>
<g id="clust10" class="cluster">
<title>cluster_22</title>
<polygon fill="none" stroke="black" points="28.24,-560.14 28.24,-731.14 220.24,-731.14 220.24,-560.14 28.24,-560.14"/>
<text text-anchor="middle" x="124.24" y="-715.94" font-family="Times,serif" font-size="14.00">tree2</text>
</g>
<g id="clust11" class="cluster">
<title>cluster_23</title>
<polygon fill="none" stroke="black" points="588.24,-0.14 588.24,-171.14 780.24,-171.14 780.24,-0.14 588.24,-0.14"/>
<text text-anchor="middle" x="684.24" y="-155.94" font-family="Times,serif" font-size="14.00">tree3</text>
</g>
<!-- cluster11&#45;X1 -->
<g id="node1" class="node">
<title>cluster11&#45;X1</title>
<polygon fill="#cc9999" stroke="#336666" points="647.98,-653.78 539.98,-653.78 539.98,-567.78 647.98,-567.78 647.98,-653.78"/>
<text text-anchor="middle" x="593.98" y="-606.98" font-family="Migu 1M" font-size="16.00" fill="blue">JJ2</text>
</g>
<!-- cluster11&#45;X2 -->
<g id="node2" class="node">
<title>cluster11&#45;X2</title>
<ellipse fill="none" stroke="black" cx="728.98" cy="-695.78" rx="69.59" ry="18"/>
<text text-anchor="middle" x="728.98" y="-692.08" font-family="Times,serif" font-size="14.00">cluster11&#45;X2</text>
</g>
<!-- cluster10&#45;X1 -->
<g id="node3" class="node">
<title>cluster10&#45;X1</title>
<ellipse fill="none" stroke="black" cx="623.15" cy="-258.9" rx="27" ry="18"/>
<text text-anchor="middle" x="623.15" y="-255.2" font-family="Times,serif" font-size="14.00">X1</text>
</g>
<!-- cluster10&#45;X2 -->
<g id="node4" class="node">
<title>cluster10&#45;X2</title>
<ellipse fill="none" stroke="black" cx="687.59" cy="-249.27" rx="27" ry="18"/>
<text text-anchor="middle" x="687.59" y="-245.57" font-family="Times,serif" font-size="14.00">X2</text>
</g>
<!-- cluster10&#45;X1&#45;&#45;cluster10&#45;X2 -->
<g id="edge1" class="edge">
<title>cluster10&#45;X1&#45;&#45;cluster10&#45;X2</title>
<path fill="none" stroke="blue" d="M659.66,-253.44C659.78,-253.43 659.9,-253.41 660.02,-253.39"/>
<polygon fill="blue" stroke="blue" points="659.11,-249.99 649.73,-254.93 660.14,-256.91 659.11,-249.99"/>
<polygon fill="blue" stroke="blue" points="651.7,-258.17 661.07,-253.23 650.66,-251.25 651.7,-258.17"/>
<text text-anchor="middle" x="654.34" y="-242.22" font-family="Migu 1M" font-size="14.00" fill="red">a&#45;b</text>
<text text-anchor="middle" x="649.14" y="-227.56" font-family="Migu 1M" font-size="14.00" fill="red">head</text>
<text text-anchor="middle" x="661.66" y="-273.2" font-family="Migu 1M" font-size="14.00" fill="red">tail</text>
</g>
<!-- alpha -->
<g id="node5" class="node">
<title>alpha</title>
<polygon fill="red" stroke="red" points="119.35,-319.09 63.35,-319.09 63.35,-283.09 119.35,-283.09 119.35,-319.09"/>
<text text-anchor="middle" x="91.35" y="-297.39" font-family="Times,serif" font-size="14.00">alpha</text>
</g>
<!-- beta -->
<g id="node6" class="node">
<title>beta</title>
<polygon fill="red" stroke="red" points="162.62,-267.42 108.62,-267.42 108.62,-231.42 162.62,-231.42 162.62,-267.42"/>
<text text-anchor="middle" x="135.62" y="-245.72" font-family="Times,serif" font-size="14.00">beta</text>
</g>
<!-- alpha&#45;&#45;beta -->
<g id="edge2" class="edge">
<title>alpha&#45;&#45;beta</title>
<path fill="none" stroke="white" d="M106.84,-283.02C111.12,-278.01 115.78,-272.58 120.07,-267.57"/>
</g>
<!-- gamma -->
<g id="node7" class="node">
<title>gamma</title>
<polygon fill="red" stroke="red" points="111.8,-204.09 42.8,-204.09 42.8,-168.09 111.8,-168.09 111.8,-204.09"/>
<text text-anchor="middle" x="77.3" y="-182.39" font-family="Times,serif" font-size="14.00">gamma</text>
</g>
<!-- alpha&#45;&#45;gamma -->
<g id="edge3" class="edge">
<title>alpha&#45;&#45;gamma</title>
<path fill="none" stroke="white" d="M89.12,-282.87C86.49,-261.33 82.14,-225.72 79.52,-204.23"/>
</g>
<!-- eta -->
<g id="node8" class="node">
<title>eta</title>
<polygon fill="red" stroke="red" points="53.55,-288.71 -0.45,-288.71 -0.45,-252.71 53.55,-252.71 53.55,-288.71"/>
<text text-anchor="middle" x="26.55" y="-267.01" font-family="Times,serif" font-size="14.00">eta</text>
</g>
<!-- alpha&#45;&#45;eta -->
<g id="edge4" class="edge">
<title>alpha&#45;&#45;eta</title>
<path fill="none" stroke="white" d="M63.12,-287.85C59.98,-286.38 56.79,-284.89 53.67,-283.42"/>
</g>
<!-- delta -->
<g id="node9" class="node">
<title>delta</title>
<polygon fill="red" stroke="red" points="230.15,-254.74 176.15,-254.74 176.15,-218.74 230.15,-218.74 230.15,-254.74"/>
<text text-anchor="middle" x="203.15" y="-233.04" font-family="Times,serif" font-size="14.00">delta</text>
</g>
<!-- alpha&#45;&#45;delta -->
<g id="edge11" class="edge">
<title>alpha&#45;&#45;delta</title>
<path fill="none" stroke="white" d="M119.56,-284.85C136.9,-274.87 158.99,-262.16 176.11,-252.31"/>
</g>
<!-- lambda -->
<g id="node13" class="node">
<title>lambda</title>
<polygon fill="red" stroke="red" points="208.89,-106.25 208.89,-121.16 180.43,-131.7 140.18,-131.7 111.72,-121.16 111.72,-106.25 140.18,-95.7 180.43,-95.7 208.89,-106.25"/>
<text text-anchor="middle" x="160.3" y="-110" font-family="Times,serif" font-size="14.00">lambda</text>
</g>
<!-- beta&#45;&#45;lambda -->
<g id="edge12" class="edge">
<title>beta&#45;&#45;lambda</title>
<path fill="none" stroke="white" d="M138.9,-231.4C143.62,-205.44 152.29,-157.8 157.01,-131.8"/>
</g>
<!-- gamma&#45;&#45;lambda -->
<g id="edge13" class="edge">
<title>gamma&#45;&#45;lambda</title>
<path fill="none" stroke="white" d="M98.24,-167.83C110.92,-156.77 127.03,-142.72 139.65,-131.71"/>
</g>
<!-- mu -->
<g id="node14" class="node">
<title>mu</title>
<polygon fill="red" stroke="red" points="94.88,-94.04 94.88,-108.96 78.84,-119.5 56.17,-119.5 40.13,-108.96 40.13,-94.04 56.17,-83.5 78.84,-83.5 94.88,-94.04"/>
<text text-anchor="middle" x="67.5" y="-97.8" font-family="Times,serif" font-size="14.00">mu</text>
</g>
<!-- eta&#45;&#45;mu -->
<g id="edge15" class="edge">
<title>eta&#45;&#45;mu</title>
<path fill="none" stroke="white" d="M30.93,-252.6C38.8,-220.12 55.21,-152.31 63.09,-119.73"/>
</g>
<!-- epsilon -->
<g id="node10" class="node">
<title>epsilon</title>
<polygon fill="red" stroke="red" points="309.85,-333.09 241.85,-333.09 241.85,-297.09 309.85,-297.09 309.85,-333.09"/>
<text text-anchor="middle" x="275.85" y="-311.39" font-family="Times,serif" font-size="14.00">epsilon</text>
</g>
<!-- delta&#45;&#45;epsilon -->
<g id="edge5" class="edge">
<title>delta&#45;&#45;epsilon</title>
<path fill="none" stroke="white" d="M220.01,-254.91C231.76,-267.57 247.35,-284.38 259.08,-297.02"/>
</g>
<!-- zeta -->
<g id="node11" class="node">
<title>zeta</title>
<polygon fill="red" stroke="red" points="324.79,-237.83 270.79,-237.83 270.79,-201.83 324.79,-201.83 324.79,-237.83"/>
<text text-anchor="middle" x="297.79" y="-216.13" font-family="Times,serif" font-size="14.00">zeta</text>
</g>
<!-- delta&#45;&#45;zeta -->
<g id="edge6" class="edge">
<title>delta&#45;&#45;zeta</title>
<path fill="none" stroke="white" d="M230.27,-231.9C242.95,-229.63 258,-226.94 270.67,-224.68"/>
</g>
<!-- theta -->
<g id="node12" class="node">
<title>theta</title>
<polygon fill="red" stroke="red" points="225.53,-306.7 171.53,-306.7 171.53,-270.7 225.53,-270.7 225.53,-306.7"/>
<text text-anchor="middle" x="198.53" y="-285" font-family="Times,serif" font-size="14.00">theta</text>
</g>
<!-- delta&#45;&#45;theta -->
<g id="edge7" class="edge">
<title>delta&#45;&#45;theta</title>
<path fill="none" stroke="white" d="M201.54,-254.91C201.09,-259.95 200.6,-265.41 200.15,-270.45"/>
</g>
<!-- nu -->
<g id="node15" class="node">
<title>nu</title>
<polygon fill="red" stroke="red" points="261.15,-410.01 223.37,-410.01 209.92,-374.01 274.6,-374.01 261.15,-410.01"/>
<text text-anchor="middle" x="242.26" y="-388.31" font-family="Times,serif" font-size="14.00">nu</text>
</g>
<!-- epsilon&#45;&#45;nu -->
<g id="edge14" class="edge">
<title>epsilon&#45;&#45;nu</title>
<path fill="none" stroke="white" d="M267.89,-333.32C262.53,-345.58 255.5,-361.67 250.16,-373.91"/>
</g>
<!-- lambda&#45;&#45;mu -->
<g id="edge8" class="edge">
<title>lambda&#45;&#45;mu</title>
<path fill="none" stroke="white" d="M111.73,-107.32C106.12,-106.58 100.55,-105.84 95.35,-105.16"/>
</g>
<!-- xi -->
<g id="node16" class="node">
<title>xi</title>
<polygon fill="red" stroke="red" points="220.83,-458.94 189.3,-458.94 178.06,-422.94 232.06,-422.94 220.83,-458.94"/>
<text text-anchor="middle" x="205.06" y="-437.24" font-family="Times,serif" font-size="14.00">xi</text>
</g>
<!-- nu&#45;&#45;xi -->
<g id="edge9" class="edge">
<title>nu&#45;&#45;xi</title>
<path fill="none" stroke="white" d="M228.41,-410.23C225.27,-414.36 221.94,-418.74 218.8,-422.87"/>
</g>
<!-- iota -->
<g id="node17" class="node">
<title>iota</title>
<polygon fill="red" stroke="red" points="370.86,-436.58 330.47,-418.58 370.86,-400.58 411.24,-418.58 370.86,-436.58"/>
<polyline fill="none" stroke="red" points="341.43,-423.47 341.43,-413.7 "/>
<polyline fill="none" stroke="red" points="359.9,-405.47 381.82,-405.47 "/>
<polyline fill="none" stroke="red" points="400.28,-413.7 400.28,-423.47 "/>
<polyline fill="none" stroke="red" points="381.82,-431.7 359.9,-431.7 "/>
<text text-anchor="middle" x="370.86" y="-414.88" font-family="Times,serif" font-size="14.00">iota</text>
</g>
<!-- kappa -->
<g id="node18" class="node">
<title>kappa</title>
<polygon fill="red" stroke="red" points="477.89,-420.59 423.43,-402.59 477.89,-384.59 532.35,-402.59 477.89,-420.59"/>
<polyline fill="none" stroke="red" points="434.82,-406.36 434.82,-398.82 "/>
<polyline fill="none" stroke="red" points="466.49,-388.36 489.28,-388.36 "/>
<polyline fill="none" stroke="red" points="520.96,-398.82 520.96,-406.36 "/>
<polyline fill="none" stroke="red" points="489.28,-416.82 466.49,-416.82 "/>
<text text-anchor="middle" x="477.89" y="-398.89" font-family="Times,serif" font-size="14.00">kappa</text>
</g>
<!-- iota&#45;&#45;kappa -->
<g id="edge10" class="edge">
<title>iota&#45;&#45;kappa</title>
<path fill="none" stroke="white" d="M401.24,-414.04C413.35,-412.23 427.43,-410.13 440.18,-408.22"/>
</g>
<!-- cluster_21.alpha1 -->
<g id="node19" class="node">
<title>cluster_21.alpha1</title>
<ellipse fill="none" stroke="black" cx="330.34" cy="-634.89" rx="42.49" ry="18"/>
<text text-anchor="middle" x="330.34" y="-631.19" font-family="Times,serif" font-size="14.00">alpha1</text>
</g>
<!-- cluster_21.beta -->
<g id="node20" class="node">
<title>cluster_21.beta</title>
<ellipse fill="none" stroke="black" cx="432.82" cy="-637.7" rx="31.4" ry="18"/>
<text text-anchor="middle" x="432.82" y="-634" font-family="Times,serif" font-size="14.00">beta</text>
</g>
<!-- cluster_21.alpha1&#45;&#45;cluster_21.beta -->
<g id="edge16" class="edge">
<title>cluster_21.alpha1&#45;&#45;cluster_21.beta</title>
<path fill="none" stroke="black" d="M372.61,-636.05C382.31,-636.32 392.46,-636.6 401.6,-636.85"/>
</g>
<!-- cluster_21.yan -->
<g id="node21" class="node">
<title>cluster_21.yan</title>
<ellipse fill="none" stroke="black" cx="396.08" cy="-585.64" rx="27.1" ry="18"/>
<text text-anchor="middle" x="396.08" y="-581.94" font-family="Times,serif" font-size="14.00">yan</text>
</g>
<!-- cluster_21.beta&#45;&#45;cluster_21.yan -->
<g id="edge17" class="edge">
<title>cluster_21.beta&#45;&#45;cluster_21.yan</title>
<path fill="none" stroke="black" d="M420.99,-620.95C416.71,-614.88 411.89,-608.05 407.63,-602.01"/>
</g>
<!-- cluster_21.top -->
<g id="node22" class="node">
<title>cluster_21.top</title>
<ellipse fill="none" stroke="black" cx="363.91" cy="-682.37" rx="27" ry="18"/>
<text text-anchor="middle" x="363.91" y="-678.67" font-family="Times,serif" font-size="14.00">top</text>
</g>
<!-- cluster_21.yan&#45;&#45;cluster_21.top -->
<g id="edge18" class="edge">
<title>cluster_21.yan&#45;&#45;cluster_21.top</title>
<path fill="none" stroke="black" d="M390.18,-603.38C384.37,-620.84 375.57,-647.33 369.78,-664.74"/>
</g>
<!-- cluster_21.top&#45;&#45;cluster_21.alpha1 -->
<g id="edge19" class="edge">
<title>cluster_21.top&#45;&#45;cluster_21.alpha1</title>
<path fill="none" stroke="black" d="M352.36,-666.03C349.25,-661.63 345.87,-656.86 342.72,-652.4"/>
</g>
<!-- cluster_22.alpha1 -->
<g id="node23" class="node">
<title>cluster_22.alpha1</title>
<ellipse fill="none" stroke="black" cx="78.34" cy="-634.89" rx="42.49" ry="18"/>
<text text-anchor="middle" x="78.34" y="-631.19" font-family="Times,serif" font-size="14.00">alpha1</text>
</g>
<!-- cluster_22.beta -->
<g id="node24" class="node">
<title>cluster_22.beta</title>
<ellipse fill="none" stroke="black" cx="180.82" cy="-637.7" rx="31.4" ry="18"/>
<text text-anchor="middle" x="180.82" y="-634" font-family="Times,serif" font-size="14.00">beta</text>
</g>
<!-- cluster_22.alpha1&#45;&#45;cluster_22.beta -->
<g id="edge20" class="edge">
<title>cluster_22.alpha1&#45;&#45;cluster_22.beta</title>
<path fill="none" stroke="black" d="M120.61,-636.05C130.31,-636.32 140.46,-636.6 149.6,-636.85"/>
</g>
<!-- cluster_22.yan -->
<g id="node25" class="node">
<title>cluster_22.yan</title>
<ellipse fill="none" stroke="black" cx="144.08" cy="-585.64" rx="27.1" ry="18"/>
<text text-anchor="middle" x="144.08" y="-581.94" font-family="Times,serif" font-size="14.00">yan</text>
</g>
<!-- cluster_22.beta&#45;&#45;cluster_22.yan -->
<g id="edge21" class="edge">
<title>cluster_22.beta&#45;&#45;cluster_22.yan</title>
<path fill="none" stroke="black" d="M168.99,-620.95C164.71,-614.88 159.89,-608.05 155.63,-602.01"/>
</g>
<!-- cluster_22.top -->
<g id="node26" class="node">
<title>cluster_22.top</title>
<ellipse fill="none" stroke="black" cx="111.91" cy="-682.37" rx="27" ry="18"/>
<text text-anchor="middle" x="111.91" y="-678.67" font-family="Times,serif" font-size="14.00">top</text>
</g>
<!-- cluster_22.yan&#45;&#45;cluster_22.top -->
<g id="edge22" class="edge">
<title>cluster_22.yan&#45;&#45;cluster_22.top</title>
<path fill="none" stroke="black" d="M138.18,-603.38C132.37,-620.84 123.57,-647.33 117.78,-664.74"/>
</g>
<!-- cluster_22.top&#45;&#45;cluster_22.alpha1 -->
<g id="edge23" class="edge">
<title>cluster_22.top&#45;&#45;cluster_22.alpha1</title>
<path fill="none" stroke="black" d="M100.36,-666.03C97.25,-661.63 93.87,-656.86 90.72,-652.4"/>
</g>
<!-- cluster_23.alpha1 -->
<g id="node27" class="node">
<title>cluster_23.alpha1</title>
<ellipse fill="none" stroke="black" cx="638.34" cy="-74.89" rx="42.49" ry="18"/>
<text text-anchor="middle" x="638.34" y="-71.19" font-family="Times,serif" font-size="14.00">alpha1</text>
</g>
<!-- cluster_23.beta -->
<g id="node28" class="node">
<title>cluster_23.beta</title>
<ellipse fill="none" stroke="black" cx="740.82" cy="-77.7" rx="31.4" ry="18"/>
<text text-anchor="middle" x="740.82" y="-74" font-family="Times,serif" font-size="14.00">beta</text>
</g>
<!-- cluster_23.alpha1&#45;&#45;cluster_23.beta -->
<g id="edge24" class="edge">
<title>cluster_23.alpha1&#45;&#45;cluster_23.beta</title>
<path fill="none" stroke="black" d="M680.61,-76.05C690.31,-76.32 700.46,-76.6 709.6,-76.85"/>
</g>
<!-- cluster_23.yan -->
<g id="node29" class="node">
<title>cluster_23.yan</title>
<ellipse fill="none" stroke="black" cx="704.08" cy="-25.64" rx="27.1" ry="18"/>
<text text-anchor="middle" x="704.08" y="-21.94" font-family="Times,serif" font-size="14.00">yan</text>
</g>
<!-- cluster_23.beta&#45;&#45;cluster_23.yan -->
<g id="edge25" class="edge">
<title>cluster_23.beta&#45;&#45;cluster_23.yan</title>
<path fill="none" stroke="black" d="M728.99,-60.95C724.71,-54.88 719.89,-48.05 715.63,-42.01"/>
</g>
<!-- cluster_23.top -->
<g id="node30" class="node">
<title>cluster_23.top</title>
<ellipse fill="none" stroke="black" cx="671.91" cy="-122.37" rx="27" ry="18"/>
<text text-anchor="middle" x="671.91" y="-118.67" font-family="Times,serif" font-size="14.00">top</text>
</g>
<!-- cluster_23.yan&#45;&#45;cluster_23.top -->
<g id="edge26" class="edge">
<title>cluster_23.yan&#45;&#45;cluster_23.top</title>
<path fill="none" stroke="black" d="M698.18,-43.38C692.37,-60.84 683.57,-87.33 677.78,-104.74"/>
</g>
<!-- cluster_23.top&#45;&#45;cluster_23.alpha1 -->
<g id="edge27" class="edge">
<title>cluster_23.top&#45;&#45;cluster_23.alpha1</title>
<path fill="none" stroke="black" d="M660.36,-106.03C657.25,-101.63 653.87,-96.86 650.72,-92.4"/>
</g>
</g>
</svg>
