<?xml version="1.0" encoding="UTF-8" standalone="no"?>
<!DOCTYPE svg PUBLIC "-//W3C//DTD SVG 1.1//EN"
 "http://www.w3.org/Graphics/SVG/1.1/DTD/svg11.dtd">
<!-- Generated by graphviz version 2.43.0 (0)
 -->
<!-- Title: ni Pages: 1 -->
<svg width="1218pt" height="1177pt"
 viewBox="0.00 0.00 1218.00 1177.00" xmlns="http://www.w3.org/2000/svg" xmlns:xlink="http://www.w3.org/1999/xlink">
<g id="graph0" class="graph" transform="scale(1 1) rotate(0) translate(4 1173)">
<title>ni</title>
<polygon fill="white" stroke="transparent" points="-4,4 -4,-1173 1214,-1173 1214,4 -4,4"/>
<text text-anchor="middle" x="605" y="-1153.8" font-family="Times,serif" font-size="14.00">Complex Architecture</text>
<g id="clust1" class="cluster">
<title>cluster_clients_mobvm_a</title>
<polygon fill="none" stroke="black" stroke-dasharray="5,2" points="44.35,-1018.56 44.35,-1145.56 239.35,-1145.56 239.35,-1018.56 44.35,-1018.56"/>
<text text-anchor="middle" x="141.85" y="-1130.36" font-family="Times,serif" font-size="14.00">xvm_a Clients</text>
</g>
<g id="clust2" class="cluster">
<title>cluster_clients_prot_a</title>
<polygon fill="none" stroke="black" stroke-dasharray="5,2" points="1026.69,-1002.02 1026.69,-1126.02 1209.69,-1126.02 1209.69,-1002.02 1026.69,-1002.02"/>
<text text-anchor="middle" x="1118.19" y="-1110.82" font-family="Times,serif" font-size="14.00">Z Clients</text>
</g>
<g id="clust3" class="cluster">
<title>cluster_prot_asrv</title>
<polygon fill="none" stroke="black" stroke-dasharray="5,2" points="681.18,-980.05 681.18,-1086.05 915.18,-1086.05 915.18,-980.05 681.18,-980.05"/>
<text text-anchor="middle" x="798.18" y="-1070.85" font-family="Times,serif" font-size="14.00">Z Shapeshifters</text>
<text text-anchor="middle" x="798.18" y="-1055.85" font-family="Times,serif" font-size="14.00">(Configurable</text>
<text text-anchor="middle" x="798.18" y="-1040.85" font-family="Times,serif" font-size="14.00">Z Shapeshifter</text>
</g>
<g id="clust4" class="cluster">
<title>cluster_machsrv</title>
<polygon fill="none" stroke="black" points="252.79,-787.84 252.79,-863.84 608.79,-863.84 608.79,-787.84 252.79,-787.84"/>
<text text-anchor="middle" x="430.79" y="-848.64" font-family="Times,serif" font-size="14.00">Machsrv Shapeshifter</text>
</g>
<g id="clust5" class="cluster">
<title>cluster_yours_trulybox</title>
<polygon fill="none" stroke="black" points="240.54,-404.8 240.54,-779.8 621.54,-779.8 621.54,-404.8 240.54,-404.8"/>
<text text-anchor="middle" x="431.04" y="-764.6" font-family="Times,serif" font-size="14.00">YoursTruly</text>
</g>
<g id="clust6" class="cluster">
<title>cluster_tunnel</title>
<polygon fill="none" stroke="black" points="249.27,-412.67 249.27,-544.67 613.27,-544.67 613.27,-412.67 249.27,-412.67"/>
<text text-anchor="middle" x="431.27" y="-529.47" font-family="Times,serif" font-size="14.00">Foo Reactor</text>
</g>
<g id="clust7" class="cluster">
<title>cluster_frontend</title>
<polygon fill="none" stroke="black" points="248.95,-552.86 248.95,-748.86 569.95,-748.86 569.95,-552.86 248.95,-552.86"/>
<text text-anchor="middle" x="409.45" y="-733.66" font-family="Times,serif" font-size="14.00">YoursTruly Front&#45;End</text>
</g>
<g id="clust8" class="cluster">
<title>cluster_shapeshifter_misc</title>
<polygon fill="none" stroke="black" stroke-dasharray="5,2" points="669.99,-760.8 669.99,-862.8 912.99,-862.8 912.99,-760.8 669.99,-760.8"/>
<text text-anchor="middle" x="791.49" y="-847.6" font-family="Times,serif" font-size="14.00">Other Shapeshifters</text>
</g>
<g id="clust9" class="cluster">
<title>cluster_accel</title>
<polygon fill="none" stroke="black" points="-0.11,-256.38 -0.11,-332.38 178.89,-332.38 178.89,-256.38 -0.11,-256.38"/>
<text text-anchor="middle" x="89.39" y="-317.18" font-family="Times,serif" font-size="14.00">GS NOXd Shapeshifter</text>
</g>
<g id="clust10" class="cluster">
<title>cluster_space_ship_a</title>
<polygon fill="none" stroke="black" points="406.9,0.28 406.9,-393.72 796.9,-393.72 796.9,0.28 406.9,0.28"/>
<text text-anchor="middle" x="601.9" y="-378.52" font-family="Times,serif" font-size="14.00">ShipX</text>
</g>
<g id="clust11" class="cluster">
<title>cluster_vm_a</title>
<polygon fill="none" stroke="black" points="643.14,-197.86 643.14,-362.86 789.14,-362.86 789.14,-197.86 643.14,-197.86"/>
<text text-anchor="middle" x="716.14" y="-347.66" font-family="Times,serif" font-size="14.00">ReactorX</text>
</g>
<g id="clust12" class="cluster">
<title>cluster_tungsten</title>
<polygon fill="none" stroke="black" points="651.37,-205.5 651.37,-331.5 781.37,-331.5 781.37,-205.5 651.37,-205.5"/>
<text text-anchor="middle" x="716.37" y="-316.3" font-family="Times,serif" font-size="14.00">Tungsten</text>
</g>
<g id="clust13" class="cluster">
<title>cluster_piston</title>
<polygon fill="none" stroke="black" points="415.22,-7.84 415.22,-167.84 632.22,-167.84 632.22,-7.84 415.22,-7.84"/>
<text text-anchor="middle" x="523.72" y="-152.64" font-family="Times,serif" font-size="14.00">ReactorY</text>
</g>
<!-- mobvm_a_req -->
<g id="node1" class="node">
<title>mobvm_a_req</title>
<path fill="none" stroke="black" d="M64.03,-1027.21C64.03,-1027.21 200.03,-1027.21 200.03,-1027.21 206.03,-1027.21 212.03,-1033.21 212.03,-1039.21 212.03,-1039.21 212.03,-1051.21 212.03,-1051.21 212.03,-1057.21 206.03,-1063.21 200.03,-1063.21 200.03,-1063.21 64.03,-1063.21 64.03,-1063.21 58.03,-1063.21 52.03,-1057.21 52.03,-1051.21 52.03,-1051.21 52.03,-1039.21 52.03,-1039.21 52.03,-1033.21 58.03,-1027.21 64.03,-1027.21"/>
<text text-anchor="middle" x="132.03" y="-1041.51" font-family="Times,serif" font-size="14.00">xvm_a Application ..</text>
</g>
<!-- machsrv_xprot_gen -->
<g id="node6" class="node">
<title>machsrv_xprot_gen</title>
<path fill="none" stroke="black" d="M273.05,-796.75C273.05,-796.75 589.05,-796.75 589.05,-796.75 595.05,-796.75 601.05,-802.75 601.05,-808.75 601.05,-808.75 601.05,-820.75 601.05,-820.75 601.05,-826.75 595.05,-832.75 589.05,-832.75 589.05,-832.75 273.05,-832.75 273.05,-832.75 267.05,-832.75 261.05,-826.75 261.05,-820.75 261.05,-820.75 261.05,-808.75 261.05,-808.75 261.05,-802.75 267.05,-796.75 273.05,-796.75"/>
<text text-anchor="middle" x="319.05" y="-811.05" font-family="Times,serif" font-size="14.00">Machsrv Core</text>
<polyline fill="none" stroke="black" points="377.05,-796.75 377.05,-832.75 "/>
<text text-anchor="middle" x="489.05" y="-811.05" font-family="Times,serif" font-size="14.00">PROT_A&#45;to&#45;XPROT Converter</text>
</g>
<!-- mobvm_a_req&#45;&#45;machsrv_xprot_gen -->
<g id="edge5" class="edge">
<title>mobvm_a_req&#45;&#45;machsrv_xprot_gen:f0</title>
<path fill="none" stroke="black" d="M147.22,-1018.08C176.13,-966.43 237.82,-856.24 255.94,-823.87"/>
<polygon fill="black" stroke="black" points="143.98,-1016.69 142.15,-1027.12 150.09,-1020.11 143.98,-1016.69"/>
<polygon fill="black" stroke="black" points="259.22,-825.18 261.05,-814.75 253.11,-821.76 259.22,-825.18"/>
</g>
<!-- mobvm_a_req1 -->
<g id="node2" class="node">
<title>mobvm_a_req1</title>
<path fill="none" stroke="black" d="M83.7,-1078.42C83.7,-1078.42 219.7,-1078.42 219.7,-1078.42 225.7,-1078.42 231.7,-1084.42 231.7,-1090.42 231.7,-1090.42 231.7,-1102.42 231.7,-1102.42 231.7,-1108.42 225.7,-1114.42 219.7,-1114.42 219.7,-1114.42 83.7,-1114.42 83.7,-1114.42 77.7,-1114.42 71.7,-1108.42 71.7,-1102.42 71.7,-1102.42 71.7,-1090.42 71.7,-1090.42 71.7,-1084.42 77.7,-1078.42 83.7,-1078.42"/>
<text text-anchor="middle" x="151.7" y="-1092.72" font-family="Times,serif" font-size="14.00">xvm_a Application 1</text>
</g>
<!-- mobvm_a_req1&#45;&#45;machsrv_xprot_gen -->
<g id="edge4" class="edge">
<title>mobvm_a_req1&#45;&#45;machsrv_xprot_gen:f0</title>
<path fill="none" stroke="black" d="M206.12,-1073.6C210.25,-1071.12 213.49,-1068.68 215.23,-1066.41 222.82,-1056.52 252.33,-870.43 259.48,-824.79"/>
<polygon fill="black" stroke="black" points="204.39,-1070.56 197.25,-1078.38 207.71,-1076.72 204.39,-1070.56"/>
<polygon fill="black" stroke="black" points="262.97,-825.17 261.05,-814.75 256.05,-824.09 262.97,-825.17"/>
</g>
<!-- z_req -->
<g id="node3" class="node">
<title>z_req</title>
<path fill="none" stroke="black" d="M1088.35,-1058.97C1088.35,-1058.97 1189.35,-1058.97 1189.35,-1058.97 1195.35,-1058.97 1201.35,-1064.97 1201.35,-1070.97 1201.35,-1070.97 1201.35,-1082.97 1201.35,-1082.97 1201.35,-1088.97 1195.35,-1094.97 1189.35,-1094.97 1189.35,-1094.97 1088.35,-1094.97 1088.35,-1094.97 1082.35,-1094.97 1076.35,-1088.97 1076.35,-1082.97 1076.35,-1082.97 1076.35,-1070.97 1076.35,-1070.97 1076.35,-1064.97 1082.35,-1058.97 1088.35,-1058.97"/>
<text text-anchor="middle" x="1138.85" y="-1073.27" font-family="Times,serif" font-size="14.00">Z Application ..</text>
</g>
<!-- z_shapeshifter -->
<g id="node5" class="node">
<title>z_shapeshifter</title>
<path fill="none" stroke="black" d="M701.02,-988.63C701.02,-988.63 895.02,-988.63 895.02,-988.63 901.02,-988.63 907.02,-994.63 907.02,-1000.63 907.02,-1000.63 907.02,-1012.63 907.02,-1012.63 907.02,-1018.63 901.02,-1024.63 895.02,-1024.63 895.02,-1024.63 701.02,-1024.63 701.02,-1024.63 695.02,-1024.63 689.02,-1018.63 689.02,-1012.63 689.02,-1012.63 689.02,-1000.63 689.02,-1000.63 689.02,-994.63 695.02,-988.63 701.02,-988.63"/>
<text text-anchor="middle" x="798.02" y="-1002.93" font-family="Times,serif" font-size="14.00">Z Shapeshifter Appearances</text>
</g>
<!-- z_req&#45;&#45;z_shapeshifter -->
<g id="edge2" class="edge">
<title>z_req&#45;&#45;z_shapeshifter</title>
<path fill="none" stroke="black" d="M1066.36,-1062.01C1016.58,-1051.73 949.92,-1037.98 895.5,-1026.75"/>
<polygon fill="black" stroke="black" points="1065.84,-1065.47 1076.34,-1064.07 1067.25,-1058.62 1065.84,-1065.47"/>
<polygon fill="black" stroke="black" points="895.99,-1023.27 885.49,-1024.68 894.57,-1030.13 895.99,-1023.27"/>
</g>
<!-- z_req1 -->
<g id="node4" class="node">
<title>z_req1</title>
<path fill="none" stroke="black" d="M1046.86,-1010.97C1046.86,-1010.97 1147.86,-1010.97 1147.86,-1010.97 1153.86,-1010.97 1159.86,-1016.97 1159.86,-1022.97 1159.86,-1022.97 1159.86,-1034.97 1159.86,-1034.97 1159.86,-1040.97 1153.86,-1046.97 1147.86,-1046.97 1147.86,-1046.97 1046.86,-1046.97 1046.86,-1046.97 1040.86,-1046.97 1034.86,-1040.97 1034.86,-1034.97 1034.86,-1034.97 1034.86,-1022.97 1034.86,-1022.97 1034.86,-1016.97 1040.86,-1010.97 1046.86,-1010.97"/>
<text text-anchor="middle" x="1097.36" y="-1025.27" font-family="Times,serif" font-size="14.00">Z Application 1</text>
</g>
<!-- z_req1&#45;&#45;z_shapeshifter -->
<g id="edge1" class="edge">
<title>z_req1&#45;&#45;z_shapeshifter</title>
<path fill="none" stroke="black" d="M1024.42,-1023.53C992.25,-1021.13 953.6,-1018.24 917.41,-1015.54"/>
<polygon fill="black" stroke="black" points="1024.37,-1027.03 1034.61,-1024.29 1024.89,-1020.05 1024.37,-1027.03"/>
<polygon fill="black" stroke="black" points="917.51,-1012.04 907.28,-1014.79 916.99,-1019.02 917.51,-1012.04"/>
<text text-anchor="middle" x="927.28" y="-1018.59" font-family="Times,serif" font-size="14.00">H100</text>
<text text-anchor="middle" x="1016.11" y="-1028.09" font-family="Times,serif" font-size="14.00">T100</text>
</g>
<!-- z_shapeshifter&#45;&#45;machsrv_xprot_gen -->
<g id="edge3" class="edge">
<title>z_shapeshifter&#45;&#45;machsrv_xprot_gen:f0</title>
<path fill="none" stroke="black" d="M687.21,-985.84C686.75,-985.71 686.28,-985.57 685.82,-985.43 538.13,-941.25 368.76,-857.83 328.14,-837.37"/>
<polygon fill="black" stroke="black" points="686.57,-989.3 697.15,-988.62 688.45,-982.56 686.57,-989.3"/>
<polygon fill="black" stroke="black" points="329.55,-834.16 319.05,-832.75 326.38,-840.4 329.55,-834.16"/>
</g>
<!-- tunnel_ingress -->
<g id="node7" class="node">
<title>tunnel_ingress</title>
<path fill="none" stroke="black" d="M451.51,-477.31C451.51,-477.31 593.51,-477.31 593.51,-477.31 599.51,-477.31 605.51,-483.31 605.51,-489.31 605.51,-489.31 605.51,-501.31 605.51,-501.31 605.51,-507.31 599.51,-513.31 593.51,-513.31 593.51,-513.31 451.51,-513.31 451.51,-513.31 445.51,-513.31 439.51,-507.31 439.51,-501.31 439.51,-501.31 439.51,-489.31 439.51,-489.31 439.51,-483.31 445.51,-477.31 451.51,-477.31"/>
<text text-anchor="middle" x="522.51" y="-491.61" font-family="Times,serif" font-size="14.00">Ingress Shapeshifter</text>
</g>
<!-- accel -->
<g id="node8" class="node">
<title>accel</title>
<path fill="none" stroke="black" d="M269.18,-456.83C269.18,-456.83 391.18,-456.83 391.18,-456.83 397.18,-456.83 403.18,-462.83 403.18,-468.83 403.18,-468.83 403.18,-480.83 403.18,-480.83 403.18,-486.83 397.18,-492.83 391.18,-492.83 391.18,-492.83 269.18,-492.83 269.18,-492.83 263.18,-492.83 257.18,-486.83 257.18,-480.83 257.18,-480.83 257.18,-468.83 257.18,-468.83 257.18,-462.83 263.18,-456.83 269.18,-456.83"/>
<text text-anchor="middle" x="330.18" y="-471.13" font-family="Times,serif" font-size="14.00">NOX Shapeshifter</text>
</g>
<!-- tunnel_ingress&#45;&#45;accel -->
<g id="edge6" class="edge">
<title>tunnel_ingress&#45;&#45;accel</title>
<path fill="none" stroke="black" d="M429.11,-485.37C423.82,-484.8 418.53,-484.24 413.28,-483.68"/>
<polygon fill="black" stroke="black" points="428.95,-488.87 439.27,-486.45 429.69,-481.91 428.95,-488.87"/>
<polygon fill="black" stroke="black" points="413.59,-480.19 403.27,-482.61 412.85,-487.15 413.59,-480.19"/>
</g>
<!-- tunnel_egress -->
<g id="node9" class="node">
<title>tunnel_egress</title>
<path fill="none" stroke="black" d="M429.9,-421.44C429.9,-421.44 567.9,-421.44 567.9,-421.44 573.9,-421.44 579.9,-427.44 579.9,-433.44 579.9,-433.44 579.9,-445.44 579.9,-445.44 579.9,-451.44 573.9,-457.44 567.9,-457.44 567.9,-457.44 429.9,-457.44 429.9,-457.44 423.9,-457.44 417.9,-451.44 417.9,-445.44 417.9,-445.44 417.9,-433.44 417.9,-433.44 417.9,-427.44 423.9,-421.44 429.9,-421.44"/>
<text text-anchor="middle" x="498.9" y="-435.74" font-family="Times,serif" font-size="14.00">Egress Shapeshifter</text>
</g>
<!-- accel&#45;&#45;tunnel_egress -->
<g id="edge7" class="edge">
<title>accel&#45;&#45;tunnel_egress</title>
<path fill="none" stroke="black" d="M413.17,-457.42C413.27,-457.4 413.36,-457.39 413.46,-457.37"/>
<polygon fill="black" stroke="black" points="412.27,-454.04 403.2,-459.52 413.71,-460.89 412.27,-454.04"/>
<polygon fill="black" stroke="black" points="408.65,-461.95 417.72,-456.47 407.21,-455.1 408.65,-461.95"/>
</g>
<!-- foo_agent -->
<g id="node17" class="node">
<title>foo_agent</title>
<path fill="none" stroke="black" d="M546.92,-16.77C546.92,-16.77 611.92,-16.77 611.92,-16.77 617.92,-16.77 623.92,-22.77 623.92,-28.77 623.92,-28.77 623.92,-40.77 623.92,-40.77 623.92,-46.77 617.92,-52.77 611.92,-52.77 611.92,-52.77 546.92,-52.77 546.92,-52.77 540.92,-52.77 534.92,-46.77 534.92,-40.77 534.92,-40.77 534.92,-28.77 534.92,-28.77 534.92,-22.77 540.92,-16.77 546.92,-16.77"/>
<text text-anchor="middle" x="579.42" y="-31.07" font-family="Times,serif" font-size="14.00">Foo Agent</text>
</g>
<!-- tunnel_egress&#45;&#45;foo_agent -->
<g id="edge21" class="edge">
<title>tunnel_egress&#45;&#45;foo_agent</title>
<path fill="none" stroke="black" d="M513.21,-412.03C539.23,-360.43 593.42,-244.61 612.66,-139.68 616.05,-121.15 617.21,-115.57 612.66,-97.28 609.58,-84.92 603.54,-72.32 597.45,-61.71"/>
<polygon fill="black" stroke="black" points="509.96,-410.69 508.54,-421.19 516.2,-413.86 509.96,-410.69"/>
<polygon fill="black" stroke="black" points="600.32,-59.69 592.16,-52.94 594.33,-63.31 600.32,-59.69"/>
<text text-anchor="middle" x="536.2" y="-251.89" font-family="Times,serif" font-size="14.00">Raw PROT_G</text>
</g>
<!-- accel_appearance -->
<g id="node10" class="node">
<title>accel_appearance</title>
<path fill="none" stroke="black" d="M27.41,-264.61C27.41,-264.61 150.41,-264.61 150.41,-264.61 156.41,-264.61 162.41,-270.61 162.41,-276.61 162.41,-276.61 162.41,-288.61 162.41,-288.61 162.41,-294.61 156.41,-300.61 150.41,-300.61 150.41,-300.61 27.41,-300.61 27.41,-300.61 21.41,-300.61 15.41,-294.61 15.41,-288.61 15.41,-288.61 15.41,-276.61 15.41,-276.61 15.41,-270.61 21.41,-264.61 27.41,-264.61"/>
<text text-anchor="middle" x="88.91" y="-278.91" font-family="Times,serif" font-size="14.00">NOXd Appearance</text>
</g>
<!-- accel_appearance&#45;&#45;accel -->
<g id="edge8" class="edge">
<title>accel_appearance&#45;&#45;accel</title>
<path fill="none" stroke="black" d="M119.65,-307.1C165.98,-344.01 253.19,-413.49 299.49,-450.38"/>
<polygon fill="black" stroke="black" points="121.61,-304.19 111.61,-300.69 117.25,-309.66 121.61,-304.19"/>
<polygon fill="black" stroke="black" points="297.36,-453.16 307.37,-456.66 301.73,-447.69 297.36,-453.16"/>
</g>
<!-- arbiter_vadam -->
<g id="node11" class="node">
<title>arbiter_vadam</title>
<path fill="none" stroke="black" d="M448.69,-621.5C448.69,-621.5 549.69,-621.5 549.69,-621.5 555.69,-621.5 561.69,-627.5 561.69,-633.5 561.69,-633.5 561.69,-645.5 561.69,-645.5 561.69,-651.5 555.69,-657.5 549.69,-657.5 549.69,-657.5 448.69,-657.5 448.69,-657.5 442.69,-657.5 436.69,-651.5 436.69,-645.5 436.69,-645.5 436.69,-633.5 436.69,-633.5 436.69,-627.5 442.69,-621.5 448.69,-621.5"/>
<text text-anchor="middle" x="499.19" y="-635.8" font-family="Times,serif" font-size="14.00">Arbiter Chunks</text>
</g>
<!-- other_xprot -->
<g id="node12" class="node">
<title>other_xprot</title>
<path fill="none" stroke="black" d="M269.17,-607.42C269.17,-607.42 406.17,-607.42 406.17,-607.42 412.17,-607.42 418.17,-613.42 418.17,-619.42 418.17,-619.42 418.17,-631.42 418.17,-631.42 418.17,-637.42 412.17,-643.42 406.17,-643.42 406.17,-643.42 269.17,-643.42 269.17,-643.42 263.17,-643.42 257.17,-637.42 257.17,-631.42 257.17,-631.42 257.17,-619.42 257.17,-619.42 257.17,-613.42 263.17,-607.42 269.17,-607.42"/>
<text text-anchor="middle" x="337.67" y="-621.72" font-family="Times,serif" font-size="14.00">XPROT &quot;crystalizer&quot;</text>
</g>
<!-- arbiter_vadam&#45;&#45;other_xprot -->
<g id="edge9" class="edge">
<title>arbiter_vadam&#45;&#45;other_xprot</title>
<path fill="none" stroke="black" stroke-dasharray="1,5" d="M426.16,-633.13C425.99,-633.12 425.83,-633.1 425.66,-633.09"/>
<polygon fill="black" stroke="black" points="426.01,-636.63 436.28,-634.02 426.62,-629.66 426.01,-636.63"/>
<polygon fill="black" stroke="black" points="428.47,-629.82 418.21,-632.44 427.86,-636.8 428.47,-629.82"/>
</g>
<!-- front_end_jz -->
<g id="node13" class="node">
<title>front_end_jz</title>
<path fill="none" stroke="black" d="M485.19,-681.5C485.19,-681.5 543.19,-681.5 543.19,-681.5 549.19,-681.5 555.19,-687.5 555.19,-693.5 555.19,-693.5 555.19,-705.5 555.19,-705.5 555.19,-711.5 549.19,-717.5 543.19,-717.5 543.19,-717.5 485.19,-717.5 485.19,-717.5 479.19,-717.5 473.19,-711.5 473.19,-705.5 473.19,-705.5 473.19,-693.5 473.19,-693.5 473.19,-687.5 479.19,-681.5 485.19,-681.5"/>
<text text-anchor="middle" x="514.19" y="-695.8" font-family="Times,serif" font-size="14.00">JZ Chunk</text>
</g>
<!-- arbiter_vadam&#45;&#45;front_end_jz -->
<g id="edge10" class="edge">
<title>arbiter_vadam&#45;&#45;front_end_jz</title>
<path fill="none" stroke="black" stroke-dasharray="1,5" d="M506.16,-667.4C506.49,-668.7 506.82,-670.02 507.15,-671.32"/>
<polygon fill="black" stroke="black" points="509.51,-666.35 503.69,-657.5 502.72,-668.05 509.51,-666.35"/>
<polygon fill="black" stroke="black" points="503.77,-672.24 509.59,-681.09 510.56,-670.54 503.77,-672.24"/>
</g>
<!-- others -->
<g id="node14" class="node">
<title>others</title>
<path fill="none" stroke="black" d="M433.77,-561.71C433.77,-561.71 525.77,-561.71 525.77,-561.71 531.77,-561.71 537.77,-567.71 537.77,-573.71 537.77,-573.71 537.77,-585.71 537.77,-585.71 537.77,-591.71 531.77,-597.71 525.77,-597.71 525.77,-597.71 433.77,-597.71 433.77,-597.71 427.77,-597.71 421.77,-591.71 421.77,-585.71 421.77,-585.71 421.77,-573.71 421.77,-573.71 421.77,-567.71 427.77,-561.71 433.77,-561.71"/>
<text text-anchor="middle" x="479.77" y="-576.01" font-family="Times,serif" font-size="14.00">Other Chunks</text>
</g>
<!-- arbiter_vadam&#45;&#45;others -->
<g id="edge11" class="edge">
<title>arbiter_vadam&#45;&#45;others</title>
<path fill="none" stroke="black" stroke-dasharray="1,5" d="M490.07,-611.41C489.65,-610.12 489.22,-608.82 488.8,-607.52"/>
<polygon fill="black" stroke="black" points="486.84,-612.81 493.26,-621.24 493.5,-610.64 486.84,-612.81"/>
<polygon fill="black" stroke="black" points="492.08,-606.29 485.66,-597.86 485.43,-608.45 492.08,-606.29"/>
</g>
<!-- other_xprot&#45;&#45;machsrv_xprot_gen -->
<g id="edge14" class="edge">
<title>other_xprot&#45;&#45;machsrv_xprot_gen</title>
<path fill="none" stroke="black" d="M351.19,-652.83C368.89,-688.73 399.77,-751.32 417.49,-787.26"/>
<polygon fill="black" stroke="black" points="354.18,-650.99 346.62,-643.57 347.91,-654.09 354.18,-650.99"/>
<polygon fill="black" stroke="black" points="414.56,-789.23 422.12,-796.65 420.84,-786.13 414.56,-789.23"/>
<text text-anchor="middle" x="309.47" y="-709.12" font-family="Times,serif" font-size="14.00">XPROT over PROT_G</text>
</g>
<!-- front_end_jz&#45;&#45;tunnel_ingress -->
<g id="edge12" class="edge">
<title>front_end_jz&#45;&#45;tunnel_ingress</title>
<path fill="none" stroke="black" d="M554.78,-674.52C558.83,-670.4 562.37,-665.79 564.89,-660.7 587.45,-615.03 560.62,-556.15 540.55,-522.37"/>
<polygon fill="black" stroke="black" points="552.2,-672.13 547.04,-681.39 556.84,-677.37 552.2,-672.13"/>
<polygon fill="black" stroke="black" points="543.34,-520.22 535.11,-513.54 537.38,-523.89 543.34,-520.22"/>
<text text-anchor="middle" x="644.57" y="-594.35" font-family="Times,serif" font-size="14.00">XPROT over PROT_G</text>
</g>
<!-- front_end_jz&#45;&#45;other_xprot -->
<g id="edge13" class="edge">
<title>front_end_jz&#45;&#45;other_xprot</title>
<path fill="none" stroke="black" d="M463.42,-678.19C440.39,-668.53 413.19,-657.11 389.98,-647.37"/>
<polygon fill="black" stroke="black" points="462.23,-681.49 472.8,-682.13 464.94,-675.03 462.23,-681.49"/>
<polygon fill="black" stroke="black" points="391.21,-644.09 380.64,-643.45 388.5,-650.55 391.21,-644.09"/>
</g>
<!-- handle_1 -->
<g id="node15" class="node">
<title>handle_1</title>
<path fill="none" stroke="black" d="M690.24,-795.05C690.24,-795.05 773.24,-795.05 773.24,-795.05 779.24,-795.05 785.24,-801.05 785.24,-807.05 785.24,-807.05 785.24,-819.05 785.24,-819.05 785.24,-825.05 779.24,-831.05 773.24,-831.05 773.24,-831.05 690.24,-831.05 690.24,-831.05 684.24,-831.05 678.24,-825.05 678.24,-819.05 678.24,-819.05 678.24,-807.05 678.24,-807.05 678.24,-801.05 684.24,-795.05 690.24,-795.05"/>
<text text-anchor="middle" x="731.74" y="-809.35" font-family="Times,serif" font-size="14.00">Shapeshift 1</text>
</g>
<!-- others&#45;&#45;handle_1 -->
<g id="edge15" class="edge">
<title>others&#45;&#45;handle_1</title>
<path fill="none" stroke="black" stroke-dasharray="1,5" d="M538.69,-602.31C547.85,-606.97 556.91,-612.31 564.89,-618.3 630.07,-667.24 687.35,-745.77 714.7,-786.55"/>
<polygon fill="black" stroke="black" points="540.06,-599.09 529.54,-597.89 537.02,-605.39 540.06,-599.09"/>
<polygon fill="black" stroke="black" points="711.79,-788.49 720.23,-794.89 717.62,-784.62 711.79,-788.49"/>
</g>
<!-- handle_x -->
<g id="node16" class="node">
<title>handle_x</title>
<path fill="none" stroke="black" d="M810.29,-769.59C810.29,-769.59 893.29,-769.59 893.29,-769.59 899.29,-769.59 905.29,-775.59 905.29,-781.59 905.29,-781.59 905.29,-793.59 905.29,-793.59 905.29,-799.59 899.29,-805.59 893.29,-805.59 893.29,-805.59 810.29,-805.59 810.29,-805.59 804.29,-805.59 798.29,-799.59 798.29,-793.59 798.29,-793.59 798.29,-781.59 798.29,-781.59 798.29,-775.59 804.29,-769.59 810.29,-769.59"/>
<text text-anchor="middle" x="851.79" y="-783.89" font-family="Times,serif" font-size="14.00">Shapeshift X</text>
</g>
<!-- others&#45;&#45;handle_x -->
<g id="edge16" class="edge">
<title>others&#45;&#45;handle_x</title>
<path fill="none" stroke="black" stroke-dasharray="1,5" d="M531.41,-602.05C542.56,-607.17 554.21,-612.75 564.89,-618.3 657,-666.18 761,-730.15 814.92,-764.1"/>
<polygon fill="black" stroke="black" points="532.75,-598.81 522.19,-597.87 529.85,-605.18 532.75,-598.81"/>
<polygon fill="black" stroke="black" points="813.13,-767.11 823.45,-769.48 816.87,-761.19 813.13,-767.11"/>
</g>
<!-- zzz_worker -->
<g id="node18" class="node">
<title>zzz_worker</title>
<path fill="none" stroke="black" d="M519.46,-100.48C519.46,-100.48 597.46,-100.48 597.46,-100.48 603.46,-100.48 609.46,-106.48 609.46,-112.48 609.46,-112.48 609.46,-124.48 609.46,-124.48 609.46,-130.48 603.46,-136.48 597.46,-136.48 597.46,-136.48 519.46,-136.48 519.46,-136.48 513.46,-136.48 507.46,-130.48 507.46,-124.48 507.46,-124.48 507.46,-112.48 507.46,-112.48 507.46,-106.48 513.46,-100.48 519.46,-100.48"/>
<text text-anchor="middle" x="558.46" y="-114.78" font-family="Times,serif" font-size="14.00">ZZZ Worker</text>
</g>
<!-- foo_agent&#45;&#45;zzz_worker -->
<g id="edge17" class="edge">
<title>foo_agent&#45;&#45;zzz_worker</title>
<path fill="none" stroke="black" d="M572.4,-62.8C570.17,-71.7 567.71,-81.54 565.48,-90.45"/>
<polygon fill="black" stroke="black" points="575.84,-63.48 574.87,-52.93 569.05,-61.78 575.84,-63.48"/>
<polygon fill="black" stroke="black" points="562.03,-89.8 563,-100.35 568.82,-91.5 562.03,-89.8"/>
<text text-anchor="middle" x="605.33" y="-80.86" font-family="Times,serif" font-size="14.00">MechCmd</text>
</g>
<!-- yyy_worker -->
<g id="node19" class="node">
<title>yyy_worker</title>
<path fill="none" stroke="black" d="M435.46,-51.48C435.46,-51.48 511.46,-51.48 511.46,-51.48 517.46,-51.48 523.46,-57.48 523.46,-63.48 523.46,-63.48 523.46,-75.48 523.46,-75.48 523.46,-81.48 517.46,-87.48 511.46,-87.48 511.46,-87.48 435.46,-87.48 435.46,-87.48 429.46,-87.48 423.46,-81.48 423.46,-75.48 423.46,-75.48 423.46,-63.48 423.46,-63.48 423.46,-57.48 429.46,-51.48 435.46,-51.48"/>
<text text-anchor="middle" x="473.46" y="-65.78" font-family="Times,serif" font-size="14.00">YYY Worker</text>
</g>
<!-- foo_agent&#45;&#45;yyy_worker -->
<g id="edge18" class="edge">
<title>foo_agent&#45;&#45;yyy_worker</title>
<path fill="none" stroke="black" d="M525.27,-52.51C525.12,-52.56 524.97,-52.61 524.82,-52.65"/>
<polygon fill="black" stroke="black" points="526.38,-55.83 534.79,-49.39 524.2,-49.18 526.38,-55.83"/>
<polygon fill="black" stroke="black" points="531.91,-46.65 523.5,-53.09 534.09,-53.3 531.91,-46.65"/>
<text text-anchor="middle" x="561.71" y="-56.33" font-family="Times,serif" font-size="14.00">MechCmd</text>
</g>
<!-- zzz -->
<g id="node20" class="node">
<title>zzz</title>
<path fill="none" stroke="black" d="M731.61,-264.14C731.61,-264.14 761.61,-264.14 761.61,-264.14 767.61,-264.14 773.61,-270.14 773.61,-276.14 773.61,-276.14 773.61,-288.14 773.61,-288.14 773.61,-294.14 767.61,-300.14 761.61,-300.14 761.61,-300.14 731.61,-300.14 731.61,-300.14 725.61,-300.14 719.61,-294.14 719.61,-288.14 719.61,-288.14 719.61,-276.14 719.61,-276.14 719.61,-270.14 725.61,-264.14 731.61,-264.14"/>
<text text-anchor="middle" x="746.61" y="-278.44" font-family="Times,serif" font-size="14.00">ZZZ</text>
</g>
<!-- zzz_worker&#45;&#45;zzz -->
<g id="edge19" class="edge">
<title>zzz_worker&#45;&#45;zzz</title>
<path fill="none" stroke="black" d="M615.42,-140.75C648.69,-156.2 689.39,-179.64 716.81,-210.94 727.61,-223.27 734.89,-240.07 739.56,-254.26"/>
<polygon fill="black" stroke="black" points="616.8,-137.53 606.25,-136.61 613.92,-143.91 616.8,-137.53"/>
<polygon fill="black" stroke="black" points="736.26,-255.46 742.5,-264.02 742.96,-253.44 736.26,-255.46"/>
<text text-anchor="middle" x="647.95" y="-187.39" font-family="Times,serif" font-size="14.00">SCADA_A()</text>
</g>
<!-- yyy -->
<g id="node21" class="node">
<title>yyy</title>
<path fill="none" stroke="black" d="M671.61,-214.14C671.61,-214.14 701.61,-214.14 701.61,-214.14 707.61,-214.14 713.61,-220.14 713.61,-226.14 713.61,-226.14 713.61,-238.14 713.61,-238.14 713.61,-244.14 707.61,-250.14 701.61,-250.14 701.61,-250.14 671.61,-250.14 671.61,-250.14 665.61,-250.14 659.61,-244.14 659.61,-238.14 659.61,-238.14 659.61,-226.14 659.61,-226.14 659.61,-220.14 665.61,-214.14 671.61,-214.14"/>
<text text-anchor="middle" x="686.61" y="-228.44" font-family="Times,serif" font-size="14.00">YYY</text>
</g>
<!-- yyy_worker&#45;&#45;yyy -->
<g id="edge20" class="edge">
<title>yyy_worker&#45;&#45;yyy</title>
<path fill="none" stroke="black" d="M480.73,-97.24C485.54,-111.3 493.07,-127.86 504.26,-139.68 544.73,-182.48 609.35,-208.64 649.81,-221.75"/>
<polygon fill="black" stroke="black" points="484.02,-96.05 477.69,-87.55 477.34,-98.14 484.02,-96.05"/>
<polygon fill="black" stroke="black" points="648.96,-225.15 659.55,-224.81 651.05,-218.47 648.96,-225.15"/>
<text text-anchor="middle" x="514.9" y="-182.98" font-family="Times,serif" font-size="14.00">SCADA_A()</text>
</g>
</g>
</svg>
