<?xml version="1.0" encoding="UTF-8" standalone="no"?>
<!DOCTYPE svg PUBLIC "-//W3C//DTD SVG 1.1//EN"
 "http://www.w3.org/Graphics/SVG/1.1/DTD/svg11.dtd">
<!-- Generated by graphviz version 10.0.1 (20240210.2158)
 -->
<!-- Pages: 1 -->
<svg width="292pt" height="188pt"
 viewBox="0.00 0.00 292.05 188.00" xmlns="http://www.w3.org/2000/svg" xmlns:xlink="http://www.w3.org/1999/xlink">
<g id="graph0" class="graph" transform="scale(1 1) rotate(0) translate(4 184)">
<polygon fill="white" stroke="none" points="-4,4 -4,-184 288.05,-184 288.05,4 -4,4"/>
<!-- 項目1 -->
<g id="node1" class="node">
<title>項目1</title>
<ellipse fill="none" stroke="black" cx="34.03" cy="-18" rx="34.03" ry="18"/>
<text text-anchor="middle" x="34.03" y="-11.82" font-family="MS Gothic" font-size="14.00">項目1</text>
</g>
<!-- 項目2 -->
<g id="node2" class="node">
<title>項目2</title>
<ellipse fill="none" stroke="black" cx="250.03" cy="-18" rx="34.03" ry="18"/>
<text text-anchor="middle" x="250.03" y="-11.82" font-family="MS Gothic" font-size="14.00">項目2</text>
</g>
<!-- 項目1&#45;&#45;項目2 -->
<g id="edge1" class="edge">
<title>項目1&#45;&#45;項目2</title>
<path fill="none" stroke="black" d="M68.25,-18C108.58,-18 175.19,-18 215.6,-18"/>
</g>
<!-- 項目3 -->
<g id="node3" class="node">
<title>項目3</title>
<ellipse fill="none" stroke="black" cx="250.03" cy="-162" rx="34.03" ry="18"/>
<text text-anchor="middle" x="250.03" y="-155.82" font-family="MS Gothic" font-size="14.00">項目3</text>
</g>
<!-- 項目2&#45;&#45;項目3 -->
<g id="edge2" class="edge">
<title>項目2&#45;&#45;項目3</title>
<path fill="none" stroke="black" d="M250.03,-36.24C250.03,-63.94 250.03,-116.3 250.03,-143.91"/>
</g>
<!-- 項目4 -->
<g id="node4" class="node">
<title>項目4</title>
<ellipse fill="none" stroke="black" cx="34.03" cy="-162" rx="34.03" ry="18"/>
<text text-anchor="middle" x="34.03" y="-155.82" font-family="MS Gothic" font-size="14.00">項目4</text>
</g>
<!-- 項目3&#45;&#45;項目4 -->
<g id="edge3" class="edge">
<title>項目3&#45;&#45;項目4</title>
<path fill="none" stroke="black" d="M215.8,-162C175.47,-162 108.86,-162 68.45,-162"/>
</g>
<!-- 項目4&#45;&#45;項目1 -->
<g id="edge4" class="edge">
<title>項目4&#45;&#45;項目1</title>
<path fill="none" stroke="black" d="M34.03,-143.76C34.03,-116.06 34.03,-63.7 34.03,-36.09"/>
</g>
</g>
</svg>
