<?xml version="1.0" encoding="UTF-8" standalone="no"?>
<!DOCTYPE svg PUBLIC "-//W3C//DTD SVG 1.1//EN"
 "http://www.w3.org/Graphics/SVG/1.1/DTD/svg11.dtd">
<!-- Generated by graphviz version 2.43.0 (0)
 -->
<!-- Title: ni Pages: 1 -->
<svg width="228pt" height="414pt"
 viewBox="0.00 0.00 228.00 414.00" xmlns="http://www.w3.org/2000/svg" xmlns:xlink="http://www.w3.org/1999/xlink">
<g id="graph0" class="graph" transform="scale(1 1) rotate(0) translate(4 410)">
<title>ni</title>
<polygon fill="white" stroke="transparent" points="-4,4 -4,-410 224,-410 224,4 -4,4"/>
<g id="clust1" class="cluster">
<title>cluster_0</title>
<polygon fill="lightgrey" stroke="lightgrey" points="8,-71 8,-362 105,-362 105,-71 8,-71"/>
<text text-anchor="middle" x="56.5" y="-346.8" font-family="Times,serif" font-size="14.00">process #1</text>
</g>
<g id="clust2" class="cluster">
<title>cluster_1</title>
<polygon fill="none" stroke="blue" points="115,-71 115,-362 212,-362 212,-71 115,-71"/>
<text text-anchor="middle" x="163.5" y="-346.8" font-family="Times,serif" font-size="14.00">process #2</text>
</g>
<!-- a0 -->
<g id="node1" class="node">
<title>a0</title>
<ellipse fill="white" stroke="white" cx="68" cy="-313" rx="27" ry="18"/>
<text text-anchor="middle" x="68" y="-309.3" font-family="Times,serif" font-size="14.00">a0</text>
</g>
<!-- a1 -->
<g id="node2" class="node">
<title>a1</title>
<ellipse fill="white" stroke="white" cx="68" cy="-241" rx="27" ry="18"/>
<text text-anchor="middle" x="68" y="-237.3" font-family="Times,serif" font-size="14.00">a1</text>
</g>
<!-- a0&#45;&#45;a1 -->
<g id="edge1" class="edge">
<title>a0&#45;&#45;a1</title>
<path fill="none" stroke="black" d="M68,-294.7C68,-283.85 68,-269.92 68,-259.1"/>
</g>
<!-- a2 -->
<g id="node3" class="node">
<title>a2</title>
<ellipse fill="white" stroke="white" cx="67" cy="-169" rx="27" ry="18"/>
<text text-anchor="middle" x="67" y="-165.3" font-family="Times,serif" font-size="14.00">a2</text>
</g>
<!-- a1&#45;&#45;a2 -->
<g id="edge2" class="edge">
<title>a1&#45;&#45;a2</title>
<path fill="none" stroke="black" d="M67.75,-222.7C67.6,-211.85 67.4,-197.92 67.24,-187.1"/>
</g>
<!-- b3 -->
<g id="node8" class="node">
<title>b3</title>
<ellipse fill="lightgrey" stroke="black" cx="150" cy="-97" rx="27" ry="18"/>
<text text-anchor="middle" x="150" y="-93.3" font-family="Times,serif" font-size="14.00">b3</text>
</g>
<!-- a1&#45;&#45;b3 -->
<g id="edge9" class="edge">
<title>a1&#45;&#45;b3</title>
<path fill="none" stroke="black" d="M78.82,-224.49C85.96,-214.05 95.36,-199.9 103,-187 117.69,-162.19 132.97,-132.39 141.98,-114.34"/>
</g>
<!-- a3 -->
<g id="node4" class="node">
<title>a3</title>
<ellipse fill="white" stroke="white" cx="68" cy="-97" rx="27" ry="18"/>
<text text-anchor="middle" x="68" y="-93.3" font-family="Times,serif" font-size="14.00">a3</text>
</g>
<!-- a2&#45;&#45;a3 -->
<g id="edge3" class="edge">
<title>a2&#45;&#45;a3</title>
<path fill="none" stroke="black" d="M67.25,-150.7C67.4,-139.85 67.6,-125.92 67.76,-115.1"/>
</g>
<!-- a3&#45;&#45;a0 -->
<g id="edge11" class="edge">
<title>a3&#45;&#45;a0</title>
<path fill="none" stroke="black" d="M53.87,-112.86C45.44,-122.81 35.51,-136.66 31,-151 16.6,-196.79 17.57,-213.22 32,-259 36.48,-273.22 46.13,-287.07 54.32,-297.05"/>
</g>
<!-- end -->
<g id="node10" class="node">
<title>end</title>
<polygon fill="none" stroke="black" points="130.5,-43 87.5,-43 87.5,0 130.5,0 130.5,-43"/>
<polyline fill="none" stroke="black" points="99.5,-43 87.5,-31 "/>
<polyline fill="none" stroke="black" points="87.5,-12 99.5,0 "/>
<polyline fill="none" stroke="black" points="118.5,0 130.5,-12 "/>
<polyline fill="none" stroke="black" points="130.5,-31 118.5,-43 "/>
<text text-anchor="middle" x="109" y="-17.8" font-family="Times,serif" font-size="14.00">end</text>
</g>
<!-- a3&#45;&#45;end -->
<g id="edge12" class="edge">
<title>a3&#45;&#45;end</title>
<path fill="none" stroke="black" d="M77.1,-79.69C83.09,-68.95 90.99,-54.79 97.43,-43.25"/>
</g>
<!-- b0 -->
<g id="node5" class="node">
<title>b0</title>
<ellipse fill="lightgrey" stroke="black" cx="150" cy="-313" rx="27" ry="18"/>
<text text-anchor="middle" x="150" y="-309.3" font-family="Times,serif" font-size="14.00">b0</text>
</g>
<!-- b1 -->
<g id="node6" class="node">
<title>b1</title>
<ellipse fill="lightgrey" stroke="black" cx="163" cy="-241" rx="27" ry="18"/>
<text text-anchor="middle" x="163" y="-237.3" font-family="Times,serif" font-size="14.00">b1</text>
</g>
<!-- b0&#45;&#45;b1 -->
<g id="edge4" class="edge">
<title>b0&#45;&#45;b1</title>
<path fill="none" stroke="black" d="M153.15,-295.05C155.16,-284.21 157.77,-270.18 159.79,-259.28"/>
</g>
<!-- b2 -->
<g id="node7" class="node">
<title>b2</title>
<ellipse fill="lightgrey" stroke="black" cx="177" cy="-169" rx="27" ry="18"/>
<text text-anchor="middle" x="177" y="-165.3" font-family="Times,serif" font-size="14.00">b2</text>
</g>
<!-- b1&#45;&#45;b2 -->
<g id="edge5" class="edge">
<title>b1&#45;&#45;b2</title>
<path fill="none" stroke="black" d="M166.39,-223.05C168.56,-212.21 171.36,-198.18 173.54,-187.28"/>
</g>
<!-- b2&#45;&#45;a3 -->
<g id="edge10" class="edge">
<title>b2&#45;&#45;a3</title>
<path fill="none" stroke="black" d="M158.01,-155.81C138.01,-142.96 106.69,-122.85 86.77,-110.05"/>
</g>
<!-- b2&#45;&#45;b3 -->
<g id="edge6" class="edge">
<title>b2&#45;&#45;b3</title>
<path fill="none" stroke="black" d="M170.6,-151.41C166.36,-140.41 160.81,-126.03 156.54,-114.96"/>
</g>
<!-- b3&#45;&#45;end -->
<g id="edge13" class="edge">
<title>b3&#45;&#45;end</title>
<path fill="none" stroke="black" d="M140.9,-79.69C134.91,-68.95 127.01,-54.79 120.57,-43.25"/>
</g>
<!-- start -->
<g id="node9" class="node">
<title>start</title>
<polygon fill="none" stroke="black" points="109,-406 62.25,-388 109,-370 155.75,-388 109,-406"/>
<polyline fill="none" stroke="black" points="73.44,-392.31 73.44,-383.69 "/>
<polyline fill="none" stroke="black" points="97.8,-374.31 120.2,-374.31 "/>
<polyline fill="none" stroke="black" points="144.56,-383.69 144.56,-392.31 "/>
<polyline fill="none" stroke="black" points="120.2,-401.69 97.8,-401.69 "/>
<text text-anchor="middle" x="109" y="-384.3" font-family="Times,serif" font-size="14.00">start</text>
</g>
<!-- start&#45;&#45;a0 -->
<g id="edge7" class="edge">
<title>start&#45;&#45;a0</title>
<path fill="none" stroke="black" d="M101.09,-372.92C94.21,-360.66 84.22,-342.88 77.02,-330.07"/>
</g>
<!-- start&#45;&#45;b0 -->
<g id="edge8" class="edge">
<title>start&#45;&#45;b0</title>
<path fill="none" stroke="black" d="M116.91,-372.92C123.79,-360.66 133.78,-342.88 140.98,-330.07"/>
</g>
</g>
</svg>
