<?xml version="1.0" encoding="UTF-8" standalone="no"?>
<!DOCTYPE svg PUBLIC "-//W3C//DTD SVG 1.1//EN"
 "http://www.w3.org/Graphics/SVG/1.1/DTD/svg11.dtd">
<!-- Generated by graphviz version 2.43.0 (0)
 -->
<!-- Title: ni Pages: 1 -->
<svg width="450pt" height="105pt"
 viewBox="0.00 0.00 450.22 105.43" xmlns="http://www.w3.org/2000/svg" xmlns:xlink="http://www.w3.org/1999/xlink">
<g id="graph0" class="graph" transform="scale(1 1) rotate(0) translate(4 101.43)">
<title>ni</title>
<polygon fill="white" stroke="transparent" points="-4,4 -4,-101.43 446.22,-101.43 446.22,4 -4,4"/>
<!-- 1 -->
<g id="node1" class="node">
<title>1</title>
<polygon fill="none" stroke="black" points="36,-60.71 0,-60.71 0,-36.71 36,-36.71 36,-30.71 54,-48.71 36,-66.71 36,-60.71"/>
<text text-anchor="middle" x="27" y="-45.01" font-family="Times,serif" font-size="14.00">Ni!</text>
</g>
<!-- 2 -->
<g id="node2" class="node">
<title>2</title>
<polygon fill="none" stroke="black" points="108,-60.71 72,-60.71 72,-36.71 108,-36.71 108,-30.71 126,-48.71 108,-66.71 108,-60.71"/>
<text text-anchor="middle" x="99" y="-45.01" font-family="Times,serif" font-size="14.00">Ni!</text>
</g>
<!-- 3 -->
<g id="node3" class="node">
<title>3</title>
<polygon fill="none" stroke="black" points="175.68,-30.76 177.46,-30.86 179.22,-31.01 180.95,-31.21 182.65,-31.45 184.31,-31.74 185.92,-32.08 187.48,-32.46 188.99,-32.89 190.43,-33.36 191.8,-33.88 193.1,-34.43 194.32,-35.02 195.45,-35.65 196.51,-36.32 197.47,-37.02 198.35,-37.75 199.13,-38.52 199.81,-39.31 200.41,-40.12 200.91,-40.96 201.31,-41.82 201.62,-42.7 201.83,-43.6 201.96,-44.51 201.99,-45.43 201.93,-46.36 201.79,-47.3 201.57,-48.24 201.27,-49.19 200.89,-50.13 200.44,-51.07 199.92,-52 199.33,-52.92 198.69,-53.83 197.98,-54.73 197.22,-55.61 196.41,-56.47 195.56,-57.31 194.67,-58.12 193.73,-58.91 192.76,-59.68 191.76,-60.41 190.74,-61.11 189.68,-61.78 188.61,-62.41 187.52,-63 186.41,-63.55 185.28,-64.07 184.14,-64.54 182.99,-64.97 181.84,-65.35 180.67,-65.69 179.5,-65.98 178.33,-66.22 177.15,-66.42 175.96,-66.57 174.78,-66.67 173.59,-66.71 172.41,-66.71 171.22,-66.67 170.04,-66.57 168.85,-66.42 167.67,-66.22 166.5,-65.98 165.33,-65.69 164.16,-65.35 163.01,-64.97 161.86,-64.54 160.72,-64.07 159.59,-63.55 158.48,-63 157.39,-62.41 156.32,-61.78 155.26,-61.11 154.24,-60.41 153.24,-59.68 152.27,-58.91 151.33,-58.12 150.44,-57.31 149.59,-56.47 148.78,-55.61 148.02,-54.73 147.31,-53.83 146.67,-52.92 146.08,-52 145.56,-51.07 145.11,-50.13 144.73,-49.19 144.43,-48.24 144.21,-47.3 144.07,-46.36 144.01,-45.43 144.04,-44.51 144.17,-43.6 144.38,-42.7 144.69,-41.82 145.09,-40.96 145.59,-40.12 146.19,-39.31 146.87,-38.52 147.65,-37.75 148.53,-37.02 149.49,-36.32 150.55,-35.65 151.68,-35.02 152.9,-34.43 154.2,-33.88 155.57,-33.36 157.01,-32.89 158.52,-32.46 160.08,-32.08 161.69,-31.74 163.35,-31.45 165.05,-31.21 166.78,-31.01 168.54,-30.86 170.32,-30.76 172.1,-30.71 173.9,-30.71 175.68,-30.76"/>
<text text-anchor="middle" x="173" y="-45.01" font-family="Times,serif" font-size="14.00">Ni!</text>
</g>
<!-- 4 -->
<g id="node4" class="node">
<title>4</title>
<polygon fill="none" stroke="black" points="322.44,-60.27 283.14,-60.27 271,-97.65 258.86,-60.27 219.56,-60.27 251.35,-37.16 239.21,0.22 271,-22.89 302.79,0.22 290.65,-37.16 322.44,-60.27"/>
<text text-anchor="middle" x="271" y="-45.01" font-family="Times,serif" font-size="14.00">Ni!</text>
</g>
<!-- 5 -->
<g id="node5" class="node">
<title>5</title>
<polygon fill="none" stroke="black" points="442.44,-60.27 403.14,-60.27 391,-97.65 378.86,-60.27 339.56,-60.27 371.35,-37.16 359.21,0.22 391,-22.89 422.79,0.22 410.65,-37.16 442.44,-60.27"/>
<text text-anchor="middle" x="391" y="-45.01" font-family="Times,serif" font-size="14.00">Ni!</text>
</g>
</g>
</svg>
